<svg width="31" height="31" viewBox="0 0 31 31" fill="none" xmlns="http://www.w3.org/2000/svg">
    <path fill-rule="evenodd" clip-rule="evenodd"
          d="M11.8636 0.833008H19.1525C27.1525 0.833008 30.1783 3.85514 30.1877 11.8551L30.1963 19.1442C30.2057 27.1442 27.187 30.1663 19.187 30.1663H11.8981C3.89812 30.1663 0.872342 27.1442 0.862934 19.1442L0.854362 11.8551C0.844953 3.85514 3.86362 0.833008 11.8636 0.833008ZM25.0273 7.76638C25.0285 8.74815 24.2335 9.54416 23.2516 9.54416C22.2698 9.54416 21.4729 8.74815 21.4718 7.76638C21.4706 6.78461 22.2656 5.98861 23.2475 5.98861C24.2293 5.98861 25.0262 6.78461 25.0273 7.76638ZM15.6053 7.94412C11.3387 7.94412 7.96485 11.3219 7.96986 15.5886C7.97467 19.6774 11.3564 23.0552 15.4453 23.0552C19.5342 23.0552 22.908 19.6774 22.9032 15.5886C23.076 11.3219 19.6942 7.94412 15.6053 7.94412ZM15.6197 20.2108C12.9531 20.2108 10.995 18.0774 10.9921 15.5886C10.989 12.922 13.12 10.9663 15.6089 10.9663C18.2755 10.9663 20.2336 13.0997 20.2365 15.5886C20.2395 18.0774 18.1086 20.2108 15.6197 20.2108Z"
          style="fill: var(--icon-color); transition: var(--custom-transition)"/>
</svg>