<svg width="33" height="25" viewBox="0 0 33 25" fill="none" xmlns="http://www.w3.org/2000/svg">
    <path d="M1.10265 11.6375C4.33798 9.95358 7.94948 8.54805 11.3239 7.13537C17.1292 4.82152 22.9575 2.54777 28.8447 0.430931C29.9901 0.0702644 32.0482 -0.282404 32.25 1.32156C32.1394 3.59204 31.6849 5.84923 31.3731 8.10642C30.5817 13.0702 29.667 18.017 28.775 22.9644C28.4677 24.6124 26.283 25.4654 24.8851 24.4108C21.5257 22.2666 18.1405 20.1431 14.824 17.9492C13.7376 16.906 14.745 15.408 15.7152 14.6631C18.4822 12.0864 21.4165 9.8972 24.0388 7.18735C24.7462 5.57328 22.6562 6.93356 21.9668 7.3504C18.1788 9.81703 14.4836 12.4343 10.49 14.6021C8.45 15.6632 6.07239 14.7564 4.03336 14.1643C2.20515 13.449 -0.47392 12.7284 1.10246 11.6378L1.10265 11.6375Z"
          style="fill: var(--icon-color); transition: var(--custom-transition)"/>
</svg>