<svg width="27" height="20" viewBox="0 0 27 20" fill="none" xmlns="http://www.w3.org/2000/svg">
    <path d="M26.4217 4.70145C26.4217 4.70145 26.1639 2.88645 25.3702 2.08207C24.3703 1.0302 23.2466 1.0302 22.7209 0.96832C19.0408 0.700195 13.5051 0.700195 13.5051 0.700195H13.4948C13.4948 0.700195 7.95918 0.700195 4.25844 0.96832C3.74302 1.0302 2.61939 1.0302 1.60916 2.08207C0.82572 2.88645 0.568008 4.70145 0.568008 4.70145C0.568008 4.70145 0.299988 6.84645 0.299988 8.98113V10.9818C0.299988 13.1164 0.568008 15.2511 0.568008 15.2511C0.568008 15.2511 0.82572 17.0661 1.61947 17.8705C2.61939 18.9224 3.93888 18.8914 4.52646 18.9946C6.6397 19.2008 13.4948 19.2627 13.4948 19.2627C13.4948 19.2627 19.0408 19.2524 22.7312 18.9843C23.2466 18.9224 24.3703 18.9224 25.3805 17.8705C26.1743 17.0661 26.432 15.2511 26.432 15.2511C26.432 15.2511 26.7 13.1164 26.7 10.9818V8.98113C26.6897 6.84645 26.4217 4.70145 26.4217 4.70145ZM10.7734 13.4052V5.99051L17.9069 9.71332L10.7734 13.4052Z"
          style="fill: var(--icon-color); transition: var(--custom-transition)"/>
</svg>