<svg width="33" height="32" viewBox="0 0 33 32" fill="none" xmlns="http://www.w3.org/2000/svg">
<path d="M12.4 15.25C13.0904 15.25 13.65 14.6904 13.65 14C13.65 13.3096 13.0904 12.75 12.4 12.75C11.7097 12.75 11.15 13.3096 11.15 14C11.15 14.6904 11.7097 15.25 12.4 15.25Z" fill="var(--current-color)" fill-opacity="0.5"/>
<path d="M16.4 15.25C17.0904 15.25 17.65 14.6904 17.65 14C17.65 13.3096 17.0904 12.75 16.4 12.75C15.7097 12.75 15.15 13.3096 15.15 14C15.15 14.6904 15.7097 15.25 16.4 15.25Z" fill="var(--current-color)" fill-opacity="0.5"/>
<path d="M20.4 15.25C21.0904 15.25 21.65 14.6904 21.65 14C21.65 13.3096 21.0904 12.75 20.4 12.75C19.7097 12.75 19.15 13.3096 19.15 14C19.15 14.6904 19.7097 15.25 20.4 15.25Z" fill="var(--current-color)" fill-opacity="0.5"/>
<path d="M24.4 5H8.40005C7.33955 5.00119 6.32282 5.423 5.57294 6.17289C4.82305 6.92278 4.40124 7.9395 4.40005 9V26.3159C4.39857 26.5671 4.46945 26.8135 4.60422 27.0255C4.73899 27.2376 4.93195 27.4064 5.16005 27.5117C5.33627 27.5948 5.52863 27.638 5.72345 27.6382C6.03157 27.6378 6.32967 27.5287 6.56525 27.3301L11.7618 23H24.4C25.4605 22.9988 26.4773 22.577 27.2272 21.8271C27.977 21.0772 28.3989 20.0605 28.4 19V9C28.3989 7.9395 27.977 6.92278 27.2272 6.17289C26.4773 5.423 25.4605 5.00119 24.4 5ZM26.4 19C26.3995 19.5303 26.1886 20.0387 25.8137 20.4136C25.4387 20.7886 24.9303 20.9995 24.4 21H11.4C11.1661 21 10.9397 21.0821 10.76 21.2319L6.40005 24.8647V9C6.40058 8.46973 6.61146 7.96133 6.98642 7.58637C7.36138 7.21141 7.86978 7.00053 8.40005 7H24.4C24.9303 7.00053 25.4387 7.21141 25.8137 7.58637C26.1886 7.96133 26.3995 8.46973 26.4 9V19Z"  fill="var(--current-color)" fill-opacity="0.5"/>
</svg>
