<svg width="33" height="32" viewBox="0 0 33 32" fill="none" xmlns="http://www.w3.org/2000/svg">
<path d="M16.2 4C13.8266 4 11.5066 4.70379 9.53317 6.02236C7.55978 7.34094 6.02171 9.21509 5.11346 11.4078C4.20521 13.6005 3.96757 16.0133 4.43059 18.3411C4.89362 20.6689 6.03651 22.8071 7.71474 24.4853C9.39297 26.1635 11.5312 27.3064 13.8589 27.7694C16.1867 28.2324 18.5995 27.9948 20.7922 27.0866C22.9849 26.1783 24.8591 24.6402 26.1777 22.6668C27.4962 20.6935 28.2 18.3734 28.2 16C28.1964 12.8185 26.9309 9.76837 24.6813 7.51872C22.4316 5.26907 19.3815 4.00363 16.2 4V4ZM16.2 26C14.2222 26 12.2888 25.4135 10.6443 24.3147C8.99982 23.2159 7.7181 21.6541 6.96122 19.8268C6.20435 17.9996 6.00631 15.9889 6.39216 14.0491C6.77802 12.1093 7.73042 10.3275 9.12895 8.92893C10.5275 7.53041 12.3093 6.578 14.2491 6.19215C16.1889 5.8063 18.1996 6.00433 20.0269 6.7612C21.8541 7.51808 23.4159 8.79981 24.5147 10.4443C25.6135 12.0888 26.2 14.0222 26.2 16C26.1971 18.6513 25.1426 21.1931 23.2678 23.0678C21.3931 24.9426 18.8513 25.9971 16.2 26V26Z"  fill="var(--current-color)" fill-opacity="0.5"/>
<path d="M21.7146 18.1426L17.2 15.4336V9C17.2 8.73478 17.0947 8.48043 16.9071 8.29289C16.7196 8.10536 16.4652 8 16.2 8C15.9348 8 15.6804 8.10536 15.4929 8.29289C15.3054 8.48043 15.2 8.73478 15.2 9V16C15.2 16.1727 15.2447 16.3424 15.3298 16.4926C15.4149 16.6429 15.5374 16.7685 15.6854 16.8574L20.6854 19.8574C20.798 19.9261 20.9231 19.9718 21.0535 19.992C21.1839 20.0121 21.317 20.0063 21.4451 19.9748C21.5732 19.9432 21.6938 19.8867 21.8 19.8083C21.9061 19.73 21.9957 19.6314 22.0636 19.5183C22.1315 19.4052 22.1764 19.2798 22.1956 19.1492C22.2148 19.0187 22.2079 18.8857 22.1755 18.7578C22.1431 18.6299 22.0856 18.5097 22.0065 18.4042C21.9274 18.2986 21.8282 18.2097 21.7146 18.1426V18.1426Z" fill="var(--current-color)" fill-opacity="0.5"/>
</svg>
