<svg width="32" height="32" viewBox="0 0 32 32" fill="none" xmlns="http://www.w3.org/2000/svg">
<g clip-path="url(#clip0_18106_60042)">
<path d="M28.707 15.293L26.7077 13.2937L26.7062 13.2921L16.707 3.29304C16.6142 3.20014 16.504 3.12644 16.3827 3.07616C16.2614 3.02588 16.1313 3 16 3C15.8687 3 15.7387 3.02588 15.6173 3.07616C15.496 3.12644 15.3858 3.20014 15.293 3.29304L5.29381 13.2921L5.29231 13.2937L3.29301 15.293C3.11085 15.4816 3.01006 15.7342 3.01234 15.9964C3.01461 16.2586 3.11978 16.5094 3.30519 16.6949C3.4906 16.8803 3.74141 16.9854 4.00361 16.9877C4.26581 16.99 4.51841 16.8892 4.70701 16.707L5.00001 16.4141V26.0176C5.00062 26.5431 5.20961 27.0469 5.58114 27.4186C5.95267 27.7902 6.45642 27.9993 6.98191 28H12.0181C12.5436 27.9993 13.0474 27.7902 13.4189 27.4186C13.7904 27.0469 13.9994 26.5431 14 26.0176V20C14 19.4696 14.2107 18.9609 14.5858 18.5858C14.9609 18.2107 15.4696 18 16 18C16.5304 18 17.0392 18.2107 17.4142 18.5858C17.7893 18.9609 18 19.4696 18 20V26.0176C18.0006 26.5431 18.2096 27.0469 18.5811 27.4186C18.9527 27.7902 19.4564 27.9993 19.9819 28H25.0181C25.5436 27.9993 26.0474 27.7902 26.4189 27.4186C26.7904 27.0469 26.9994 26.5431 27 26.0176V16.4141L27.293 16.707C27.4816 16.8892 27.7342 16.99 27.9964 16.9877C28.2586 16.9854 28.5094 16.8803 28.6948 16.6949C28.8802 16.5094 28.9854 16.2586 28.9877 15.9964C28.99 15.7342 28.8892 15.4816 28.707 15.293ZM25.0181 26L20 26.0176V20C20 18.9392 19.5786 17.9218 18.8284 17.1716C18.0783 16.4215 17.0609 16 16 16C14.9391 16 13.9217 16.4215 13.1716 17.1716C12.4214 17.9218 12 18.9392 12 20L12.0181 26L7.00001 26.0176V14.4141L16 5.41413L25.0006 14.4147L25.0181 26Z"  fill="var(--current-color)" fill-opacity="0.5"/>
</g>
<defs>
<clipPath id="clip0_18106_60042">
<rect width="26" height="26" fill="white" transform="translate(3 3)"/>
</clipPath>
</defs>
</svg>
