<svg width="33" height="32" viewBox="0 0 33 32" fill="none" xmlns="http://www.w3.org/2000/svg">
<path d="M13.8713 6H7.72869C7.21734 6.00058 6.72711 6.20397 6.36553 6.56555C6.00396 6.92712 5.80057 7.41736 5.79999 7.9287V15.0713C5.80057 15.5826 6.00396 16.0729 6.36553 16.4345C6.72711 16.796 7.21734 16.9994 7.72869 17H13.8713C14.3826 16.9994 14.8729 16.796 15.2344 16.4345C15.596 16.0729 15.7994 15.5826 15.8 15.0713V7.9287C15.7994 7.41736 15.596 6.92712 15.2344 6.56555C14.8729 6.20397 14.3826 6.00058 13.8713 6ZM13.8 15H7.79999V8H13.8V15Z" fill="var(--current-color)"/>
<path d="M25.8713 6H19.7287C19.2173 6.00058 18.7271 6.20397 18.3655 6.56555C18.004 6.92712 17.8006 7.41736 17.8 7.9287V12.0713C17.8006 12.5826 18.004 13.0729 18.3655 13.4345C18.7271 13.796 19.2173 13.9994 19.7287 14H25.8713C26.3826 13.9994 26.8729 13.796 27.2344 13.4345C27.596 13.0729 27.7994 12.5826 27.8 12.0713V7.9287C27.7994 7.41736 27.596 6.92712 27.2344 6.56555C26.8729 6.20397 26.3826 6.00058 25.8713 6ZM25.8 12H19.8V8H25.8V12Z" fill="var(--current-color)"/>
<path d="M13.8713 19H7.72869C7.21734 19.0006 6.72711 19.204 6.36553 19.5655C6.00396 19.9271 5.80057 20.4174 5.79999 20.9287V25.0713C5.80057 25.5826 6.00396 26.0729 6.36553 26.4345C6.72711 26.796 7.21734 26.9994 7.72869 27H13.8713C14.3826 26.9994 14.8729 26.796 15.2344 26.4345C15.596 26.0729 15.7994 25.5826 15.8 25.0713V20.9287C15.7994 20.4174 15.596 19.9271 15.2344 19.5655C14.8729 19.204 14.3826 19.0006 13.8713 19ZM13.8 25H7.79999V21H13.8V25Z" fill="var(--current-color)"/>
<path d="M25.8713 16H19.7287C19.2173 16.0006 18.7271 16.204 18.3655 16.5655C18.004 16.9271 17.8006 17.4174 17.8 17.9287V25.0713C17.8006 25.5826 18.004 26.0729 18.3655 26.4345C18.7271 26.796 19.2173 26.9994 19.7287 27H25.8713C26.3826 26.9994 26.8729 26.796 27.2344 26.4345C27.596 26.0729 27.7994 25.5826 27.8 25.0713V17.9287C27.7994 17.4174 27.596 16.9271 27.2344 16.5655C26.8729 16.204 26.3826 16.0006 25.8713 16ZM25.8 25H19.8V18H25.8V25Z" fill="var(--current-color)"/>
</svg>
