<svg width="33" height="32" viewBox="0 0 33 32" fill="none" xmlns="http://www.w3.org/2000/svg">
<path d="M24.6 7H8.60001C7.53951 7.00119 6.52278 7.423 5.77289 8.17289C5.02301 8.92278 4.6012 9.9395 4.60001 11V21C4.6012 22.0605 5.02301 23.0772 5.77289 23.8271C6.52278 24.577 7.53951 24.9988 8.60001 25H24.6C25.6605 24.9988 26.6772 24.577 27.4271 23.8271C28.177 23.0772 28.5988 22.0605 28.6 21V11C28.5988 9.9395 28.177 8.92278 27.4271 8.17289C26.6772 7.423 25.6605 7.00119 24.6 7ZM6.60001 11C6.60054 10.4697 6.81142 9.96133 7.18638 9.58637C7.56134 9.21141 8.06974 9.00053 8.60001 9H24.6C25.1303 9.00053 25.6387 9.21141 26.0136 9.58637C26.3886 9.96133 26.5995 10.4697 26.6 11V12H6.60001V11ZM26.6 21C26.5995 21.5303 26.3886 22.0387 26.0136 22.4136C25.6387 22.7886 25.1303 22.9995 24.6 23H8.60001C8.06974 22.9995 7.56134 22.7886 7.18638 22.4136C6.81142 22.0387 6.60054 21.5303 6.60001 21V14H26.6V21Z" fill="var(--current-color)" fill-opacity="0.5"/>
</svg>
