<svg width="37" height="23" viewBox="0 0 37 23" fill="none" xmlns="http://www.w3.org/2000/svg">
    <path d="M7.5717 3.98815L9.70995 7.69145C5.37657 10.4077 2.45453 15.0322 2.00348 20.424L1.91285 21.5074H3H34.6667H35.7539L35.6632 20.4239C35.2118 15.0323 32.2897 10.4078 27.9567 7.69149L30.095 3.98815L30.0955 3.98719C30.3002 3.63173 30.3556 3.20957 30.2494 2.81333C30.1432 2.4171 29.8842 2.07918 29.5292 1.87371L29.5271 1.87253C29.1717 1.66793 28.7496 1.61265 28.3535 1.7188C27.9573 1.82495 27.6195 2.08387 27.414 2.43879L27.4133 2.43992L25.1869 6.29635C23.2347 5.53068 21.0931 5.11189 18.8333 5.11189C16.5736 5.11189 14.432 5.53067 12.4798 6.29635L10.2534 2.4399L10.2527 2.43879C10.0472 2.08387 9.70932 1.82495 9.31318 1.7188C8.91704 1.61265 8.49497 1.66793 8.13953 1.87253L8.13806 1.87338C7.78267 2.07875 7.52336 2.41682 7.41712 2.81329C7.31088 3.20976 7.3664 3.6322 7.57148 3.98776L7.5717 3.98815Z" stroke="#AAAAAA" stroke-width="2"/>
    <path d="M24.8027 14.1907C24.8027 14.6502 25.1765 15.0243 25.636 15.0243C26.0956 15.0243 26.4694 14.6503 26.4694 14.1907C26.4694 13.7311 26.0956 13.3574 25.636 13.3574C25.1765 13.3574 24.8027 13.7312 24.8027 14.1907Z" stroke="#AAAAAA" stroke-width="2"/>
    <path d="M24.8027 14.1907C24.8027 14.6502 25.1765 15.0243 25.636 15.0243C26.0956 15.0243 26.4694 14.6503 26.4694 14.1907C26.4694 13.7311 26.0956 13.3574 25.636 13.3574C25.1765 13.3574 24.8027 13.7312 24.8027 14.1907Z" stroke="#AAAAAA" stroke-width="2"/>
    <path d="M11.334 14.1907C11.334 14.6502 11.7078 15.0243 12.1673 15.0243C12.6269 15.0243 13.0007 14.6503 13.0007 14.1907C13.0007 13.7311 12.6269 13.3574 12.1673 13.3574C11.7078 13.3574 11.334 13.7312 11.334 14.1907Z" stroke="#AAAAAA" stroke-width="2"/>
</svg>
