<svg width="60" height="60" viewBox="0 0 60 60" fill="none" xmlns="http://www.w3.org/2000/svg">
    <path d="M55.0784 27.5778H12.9177L28.0959 12.3995C28.5549 11.9287 28.81 11.296 28.8058 10.6385C28.8017 9.98091 28.5386 9.35149 28.0736 8.88653C27.6087 8.42157 26.9793 8.15851 26.3217 8.15435C25.6642 8.15018 25.0315 8.40524 24.5607 8.86427L5.1149 28.31C4.64615 28.7788 4.38281 29.4147 4.38281 30.0776C4.38281 30.7406 4.64615 31.3764 5.1149 31.8453L24.5607 51.291C24.7917 51.528 25.0675 51.7167 25.3721 51.8463C25.6766 51.9759 26.0039 52.0436 26.3348 52.0457C26.6658 52.0478 26.9939 51.9842 27.3001 51.8585C27.6062 51.7328 27.8844 51.5476 28.1184 51.3136C28.3525 51.0795 28.5377 50.8014 28.6634 50.4952C28.7891 50.189 28.8527 49.8609 28.8506 49.53C28.8485 49.199 28.7807 48.8717 28.6512 48.5672C28.5216 48.2626 28.3329 47.9868 28.0959 47.7558L12.9177 32.5778H55.0784C55.7414 32.5778 56.3773 32.3144 56.8462 31.8455C57.315 31.3767 57.5784 30.7408 57.5784 30.0778C57.5784 29.4147 57.315 28.7788 56.8462 28.31C56.3773 27.8412 55.7414 27.5778 55.0784 27.5778Z"
          fill="var(--current-color)"/>
</svg>