<svg width="26" height="27" viewBox="0 0 26 27" fill="none" xmlns="http://www.w3.org/2000/svg">
    <g clip-path="url(#clip0_14815_3293)">
        <path d="M22.33 19.2053C21.6087 18.6708 21.0224 17.9751 20.6179 17.1737C20.2133 16.3724 20.0017 15.4875 20 14.5898V11.1953C19.997 9.51099 19.3873 7.88412 18.2825 6.61276C17.1777 5.3414 15.6518 4.51069 13.9844 4.27281C13.9866 4.24581 14 4.22281 14 4.19531V3.19531C14 2.9301 13.8946 2.67574 13.7071 2.48821C13.5195 2.30067 13.2652 2.19531 13 2.19531C12.7347 2.19531 12.4804 2.30067 12.2929 2.48821C12.1053 2.67574 12 2.9301 12 3.19531V4.19531C12 4.22281 12.0134 4.24581 12.0156 4.27281C10.3481 4.51069 8.82222 5.3414 7.71742 6.61276C6.61261 7.88412 6.00289 9.51099 5.99996 11.1953V14.5898C5.99822 15.4877 5.78657 16.3727 5.38191 17.1742C4.97725 17.9757 4.39079 18.6715 3.66936 19.206C3.38947 19.4139 3.18224 19.7048 3.07714 20.0373C2.97203 20.3697 2.97439 20.7268 3.08389 21.0579C3.19339 21.3889 3.40445 21.677 3.68707 21.8812C3.96969 22.0854 4.30949 22.1953 4.65816 22.1953H21.3418C21.6906 22.1954 22.0305 22.0855 22.3133 21.8812C22.596 21.6769 22.8071 21.3887 22.9166 21.0575C23.0261 20.7263 23.0283 20.3691 22.923 20.0365C22.8177 19.704 22.6102 19.4131 22.3301 19.2053H22.33ZM5.59466 20.1953C6.35298 19.4715 6.95701 18.6018 7.37038 17.6385C7.78374 16.6751 7.9979 15.6381 7.99996 14.5898V11.1953C7.99996 9.86923 8.52675 8.59746 9.46443 7.65978C10.4021 6.7221 11.6739 6.19531 13 6.19531C14.326 6.19531 15.5978 6.7221 16.5355 7.65978C17.4732 8.59746 18 9.86923 18 11.1953V14.5898C18.0021 15.638 18.2163 16.675 18.6296 17.6383C19.0428 18.6016 19.6467 19.4714 20.4048 20.1953H5.59466Z" fill="#AAAAAA"/>
        <path d="M16.1516 22.2531C16.0278 22.2091 15.8966 22.1899 15.7654 22.1966C15.6342 22.2033 15.5057 22.2358 15.387 22.2922C15.2684 22.3486 15.1621 22.4278 15.0741 22.5253C14.9861 22.6229 14.9181 22.7368 14.8742 22.8605C14.7394 23.2503 14.4865 23.5884 14.1506 23.8277C13.8147 24.067 13.4126 24.1956 13.0002 24.1956C12.5878 24.1956 12.1856 24.067 11.8497 23.8277C11.5138 23.5884 11.2609 23.2503 11.1262 22.8605C11.0373 22.6106 10.8528 22.4062 10.6133 22.2923C10.3737 22.1784 10.0987 22.1643 9.84877 22.2531C9.59883 22.342 9.39442 22.5265 9.28051 22.766C9.1666 23.0056 9.15252 23.2806 9.24137 23.5305C9.51456 24.3094 10.023 24.9842 10.6963 25.4616C11.3697 25.939 12.1747 26.1955 13.0002 26.1955C13.8256 26.1955 14.6306 25.939 15.304 25.4616C15.9773 24.9842 16.4858 24.3094 16.759 23.5305C16.8477 23.2806 16.8336 23.0056 16.7197 22.7661C16.6058 22.5266 16.4015 22.3421 16.1516 22.2531Z" fill="#AAAAAA"/>
        <path d="M3.69949 10.5741C3.83842 9.24414 4.26139 7.95954 4.93977 6.80722C5.61815 5.65489 6.53613 4.66171 7.63159 3.89488C7.84199 3.73984 7.98334 3.50858 8.02536 3.25063C8.06738 2.99267 8.00674 2.72851 7.85642 2.5147C7.7061 2.3009 7.47805 2.15444 7.22109 2.10668C6.96414 2.05893 6.69869 2.11367 6.48159 2.25918C5.15178 3.19051 4.03757 4.39666 3.21439 5.796C2.39121 7.19533 1.87827 8.75519 1.71029 10.37C1.68326 10.6338 1.7621 10.8975 1.92946 11.1031C2.09683 11.3088 2.33903 11.4396 2.60279 11.4667C2.6372 11.4704 2.67178 11.4722 2.70639 11.4721C2.95366 11.4717 3.192 11.3797 3.37541 11.2138C3.55881 11.048 3.67427 10.8201 3.69949 10.5741Z" fill="#AAAAAA"/>
        <path d="M19.5337 2.25942C19.4264 2.1804 19.3045 2.1236 19.175 2.09236C19.0455 2.06111 18.9111 2.05605 18.7797 2.07746C18.6482 2.09888 18.5223 2.14634 18.4095 2.21706C18.2966 2.28779 18.199 2.38035 18.1224 2.48931C18.0458 2.59827 17.9917 2.72144 17.9633 2.85159C17.935 2.98173 17.9329 3.11623 17.9573 3.24718C17.9816 3.37814 18.0319 3.50291 18.1051 3.61417C18.1783 3.72544 18.273 3.82096 18.3837 3.89512C19.4797 4.66241 20.3981 5.65627 21.0766 6.80939C21.755 7.96251 22.1778 9.24797 22.3163 10.5787C22.3414 10.8249 22.4569 11.053 22.6404 11.219C22.824 11.3849 23.0625 11.4769 23.31 11.4772C23.3442 11.4774 23.3784 11.4755 23.4125 11.4718C23.6762 11.4448 23.9185 11.3142 24.086 11.1086C24.2535 10.9031 24.3324 10.6394 24.3056 10.3756C24.1381 8.75986 23.6254 7.19896 22.8021 5.79865C21.9788 4.39834 20.8642 3.19134 19.5337 2.25942Z" fill="#AAAAAA"/>
    </g>
    <defs>
        <clipPath id="clip0_14815_3293">
            <rect width="26" height="26" fill="white" transform="translate(0 0.195312)"/>
        </clipPath>
    </defs>
</svg>
