<svg width="20" height="20" viewBox="0 0 20 20" fill="none" xmlns="http://www.w3.org/2000/svg">
    <path d="M20 10C20 15.5228 15.5228 20 10 20C4.47715 20 0 15.5228 0 10C0 4.47715 4.47715 0 10 0C15.5228 0 20 4.47715 20 10Z" fill="#FAFAFA"/>
    <path fill-rule="evenodd" clip-rule="evenodd" d="M10 19C14.9706 19 19 14.9706 19 10C19 5.02944 14.9706 1 10 1C5.02944 1 1 5.02944 1 10C1 14.9706 5.02944 19 10 19ZM10 20C15.5228 20 20 15.5228 20 10C20 4.47715 15.5228 0 10 0C4.47715 0 0 4.47715 0 10C0 15.5228 4.47715 20 10 20Z" fill="#00CC69"/>
    <path fill-rule="evenodd" clip-rule="evenodd" d="M6.74365 6.28285C6.94559 5.66666 7.52061 5.25 8.16905 5.25H11.831C12.4794 5.25 13.0544 5.66666 13.2564 6.28285L13.305 6.43136C13.3723 6.63675 13.564 6.77564 13.7802 6.77564H14.75C15.5784 6.77564 16.25 7.44721 16.25 8.27564V13.25C16.25 14.0784 15.5784 14.75 14.75 14.75H5.25C4.42157 14.75 3.75 14.0784 3.75 13.25V8.27564C3.75 7.44721 4.42157 6.77564 5.25 6.77564H6.21984C6.43599 6.77564 6.62766 6.63675 6.69498 6.43136L6.74365 6.28285ZM8.16905 6.25C7.9529 6.25 7.76123 6.38889 7.69391 6.59428L7.64524 6.74279C7.4433 7.35898 6.86828 7.77564 6.21984 7.77564H5.25C4.97386 7.77564 4.75 7.9995 4.75 8.27564V13.25C4.75 13.5261 4.97386 13.75 5.25 13.75H14.75C15.0261 13.75 15.25 13.5261 15.25 13.25V8.27564C15.25 7.9995 15.0261 7.77564 14.75 7.77564H13.7802C13.1317 7.77564 12.5567 7.35898 12.3548 6.74279L12.3061 6.59428C12.2388 6.38889 12.0471 6.25 11.831 6.25H8.16905Z" fill="#00CC69"/>
    <path fill-rule="evenodd" clip-rule="evenodd" d="M10 11.75C10.6904 11.75 11.25 11.1904 11.25 10.5C11.25 9.80964 10.6904 9.25 10 9.25C9.30964 9.25 8.75 9.80964 8.75 10.5C8.75 11.1904 9.30964 11.75 10 11.75ZM10 12.75C11.2426 12.75 12.25 11.7426 12.25 10.5C12.25 9.25736 11.2426 8.25 10 8.25C8.75736 8.25 7.75 9.25736 7.75 10.5C7.75 11.7426 8.75736 12.75 10 12.75Z" fill="#00CC69"/>
</svg>
