<svg width="60" height="60" viewBox="0 0 60 60" fill="red" xmlns="http://www.w3.org/2000/svg">
    <path d="M50.7692 9.23071H9.23075C7.39526 9.23273 5.63552 9.96277 4.33763 11.2607C3.03973 12.5586 2.30969 14.3183 2.30768 16.1538V43.8461C2.30969 45.6816 3.03973 47.4413 4.33763 48.7392C5.63552 50.0371 7.39526 50.7672 9.23075 50.7692H50.7692C52.6047 50.7672 54.3645 50.0371 55.6623 48.7392C56.9602 47.4413 57.6903 45.6816 57.6923 43.8461V16.1538C57.6903 14.3183 56.9602 12.5586 55.6623 11.2607C54.3645 9.96277 52.6047 9.23273 50.7692 9.23071ZM6.92306 16.1538C6.92361 15.5419 7.16692 14.9553 7.59958 14.5226C8.03223 14.09 8.61889 13.8466 9.23075 13.8461H50.7692C51.3811 13.8466 51.9677 14.09 52.4004 14.5226C52.8331 14.9553 53.0764 15.5419 53.0769 16.1538V20.7692H6.92306V16.1538ZM53.0769 43.8461C53.0764 44.458 52.8331 45.0446 52.4004 45.4773C51.9677 45.9099 51.3811 46.1532 50.7692 46.1538H9.23075C8.61889 46.1532 8.03223 45.9099 7.59958 45.4773C7.16692 45.0446 6.92361 44.458 6.92306 43.8461V25.3846H53.0769V43.8461Z"
          fill="var(--current-color)"/>
    <path d="M13.8461 41.5385H25.3846C25.9966 41.5385 26.5836 41.2953 27.0164 40.8626C27.4492 40.4298 27.6923 39.8428 27.6923 39.2308C27.6923 38.6187 27.4492 38.0318 27.0164 37.599C26.5836 37.1662 25.9966 36.9231 25.3846 36.9231H13.8461C13.2341 36.9231 12.6471 37.1662 12.2144 37.599C11.7816 38.0318 11.5385 38.6187 11.5385 39.2308C11.5385 39.8428 11.7816 40.4298 12.2144 40.8626C12.6471 41.2953 13.2341 41.5385 13.8461 41.5385Z"
          fill="var(--current-color)"/>
</svg>