<svg width="30" height="31" viewBox="0 0 30 31" fill="none" xmlns="http://www.w3.org/2000/svg">
    <g clip-path="url(#clip0_14946_2066)">
        <path d="M15 0.194336C12.0333 0.194336 9.13319 1.07407 6.66645 2.72229C4.19972 4.37051 2.27713 6.71319 1.14181 9.45408C0.00649926 12.195 -0.290551 15.211 0.288228 18.1207C0.867006 21.0304 2.29562 23.7031 4.3934 25.8009C6.49119 27.8987 9.16394 29.3273 12.0737 29.9061C14.9834 30.4849 17.9994 30.1878 20.7403 29.0525C23.4812 27.9172 25.8238 25.9946 27.472 23.5279C29.1203 21.0612 30 18.1611 30 15.1943C29.9954 11.2175 28.4136 7.40483 25.6016 4.59278C22.7895 1.78072 18.9769 0.198901 15 0.194336V0.194336ZM15 1.69434C17.2512 1.6907 19.4675 2.251 21.4465 3.32411C23.4255 4.39721 25.1042 5.94892 26.3294 7.83759C27.5545 9.72626 28.2871 11.8917 28.4601 14.1363C28.6332 16.3808 28.2413 18.633 27.3203 20.6872L20.2328 12.6257C20.1604 12.5489 20.0732 12.4877 19.9763 12.4458C19.8794 12.404 19.775 12.3824 19.6695 12.3824C19.564 12.3824 19.4596 12.404 19.3627 12.4458C19.2659 12.4877 19.1786 12.5489 19.1063 12.6257L12.2663 20.4052L8.91001 16.5881C8.83768 16.5113 8.7504 16.4501 8.65354 16.4082C8.55667 16.3664 8.45227 16.3448 8.34676 16.3448C8.24124 16.3448 8.13684 16.3664 8.03997 16.4082C7.94311 16.4501 7.85583 16.5113 7.78351 16.5881L3.22351 21.7748C2.07194 19.7216 1.47796 17.4027 1.50064 15.0487C1.52331 12.6947 2.16185 10.3877 3.35274 8.35708C4.54364 6.32645 6.2454 4.64297 8.28877 3.47407C10.3321 2.30517 12.6459 1.69159 15 1.69434ZM15 28.6943C12.8638 28.6924 10.7587 28.1828 8.85812 27.2075C6.95757 26.2322 5.31606 24.8191 4.06891 23.0848L8.34668 18.2192L11.703 22.0363C11.7753 22.1131 11.8626 22.1743 11.9595 22.2162C12.0563 22.258 12.1607 22.2796 12.2663 22.2796C12.3718 22.2796 12.4762 22.258 12.573 22.2162C12.6699 22.1743 12.7572 22.1131 12.8295 22.0363L19.6695 14.2568L26.5735 22.1093C25.3786 24.1142 23.6842 25.7748 21.6557 26.929C19.6271 28.0832 17.3339 28.6914 15 28.6943Z" fill="#7C7C7C"/>
        <path d="M11.625 13.6943C12.2925 13.6943 12.945 13.4964 13.5001 13.1255C14.0551 12.7547 14.4876 12.2276 14.7431 11.6109C14.9985 10.9942 15.0654 10.3156 14.9352 9.66091C14.8049 9.00622 14.4835 8.40485 14.0115 7.93285C13.5395 7.46085 12.9381 7.13941 12.2834 7.00919C11.6287 6.87896 10.9501 6.9458 10.3334 7.20124C9.71674 7.45669 9.18964 7.88927 8.81879 8.44429C8.44794 8.9993 8.25 9.65183 8.25 10.3193C8.25099 11.2141 8.60689 12.072 9.23961 12.7047C9.87233 13.3374 10.7302 13.6933 11.625 13.6943ZM11.625 8.44434C11.9958 8.44434 12.3584 8.5543 12.6667 8.76033C12.975 8.96636 13.2154 9.25919 13.3573 9.60181C13.4992 9.94442 13.5363 10.3214 13.464 10.6851C13.3916 11.0488 13.213 11.3829 12.9508 11.6452C12.6886 11.9074 12.3545 12.086 11.9908 12.1583C11.6271 12.2307 11.2501 12.1935 10.9075 12.0516C10.5649 11.9097 10.272 11.6694 10.066 11.361C9.85997 11.0527 9.75 10.6902 9.75 10.3193C9.7506 9.82224 9.94833 9.34567 10.2998 8.99417C10.6513 8.64267 11.1279 8.44493 11.625 8.44434Z" fill="#7C7C7C"/>
    </g>
    <defs>
        <clipPath id="clip0_14946_2066">
            <rect width="30" height="30" fill="white" transform="translate(0 0.194336)"/>
        </clipPath>
    </defs>
</svg>
