<svg width="60" height="60" viewBox="0 0 60 60" fill="none" xmlns="http://www.w3.org/2000/svg">
    <path d="M30 2.30762C24.523 2.30762 19.169 3.93174 14.615 6.97461C10.061 10.0175 6.51161 14.3424 4.41564 19.4025C2.31968 24.4626 1.77128 30.0306 2.83979 35.4024C3.9083 40.7742 6.54574 45.7085 10.4186 49.5813C14.2914 53.4542 19.2257 56.0916 24.5975 57.1601C29.9693 58.2286 35.5373 57.6802 40.5974 55.5843C45.6575 53.4883 49.9824 49.9389 53.0253 45.3849C56.0682 40.831 57.6923 35.4769 57.6923 29.9999C57.6839 22.658 54.7637 15.6193 49.5722 10.4277C44.3807 5.23625 37.3419 2.31598 30 2.30762ZM30 53.0768C25.4358 53.0768 20.9741 51.7234 17.1791 49.1877C13.3842 46.652 10.4263 43.0478 8.6797 38.8311C6.93306 34.6143 6.47606 29.9743 7.36649 25.4978C8.25692 21.0214 10.4548 16.9094 13.6821 13.6821C16.9095 10.4547 21.0214 8.25685 25.4979 7.36642C29.9744 6.47599 34.6144 6.93299 38.8312 8.67963C43.0479 10.4263 46.652 13.3841 49.1878 17.1791C51.7235 20.9741 53.0769 25.4357 53.0769 29.9999C53.0701 36.1182 50.6367 41.984 46.3104 46.3103C41.9841 50.6366 36.1183 53.0701 30 53.0768Z"
          fill="var(--current-color)"/>
    <path d="M42.726 34.9446L32.3077 28.693V13.8463C32.3077 13.2342 32.0646 12.6473 31.6318 12.2145C31.199 11.7817 30.612 11.5386 30 11.5386C29.388 11.5386 28.801 11.7817 28.3682 12.2145C27.9354 12.6473 27.6923 13.2342 27.6923 13.8463V30.0001C27.6923 30.3986 27.7955 30.7902 27.9918 31.1369C28.1881 31.4837 28.4708 31.7737 28.8125 31.9787L40.3509 38.9018C40.6108 39.0604 40.8995 39.1659 41.2004 39.2124C41.5013 39.2589 41.8084 39.2454 42.1041 39.1726C42.3997 39.0999 42.678 38.9694 42.923 38.7886C43.168 38.6078 43.3747 38.3804 43.5314 38.1193C43.6881 37.8583 43.7916 37.5688 43.8359 37.2676C43.8802 36.9664 43.8644 36.6594 43.7896 36.3643C43.7147 36.0692 43.5822 35.7918 43.3997 35.5482C43.2171 35.3045 42.9882 35.0994 42.726 34.9446Z"
          fill="var(--current-color)"/>
</svg>