<svg width="25" height="15" viewBox="0 0 25 15" fill="none" xmlns="http://www.w3.org/2000/svg">
    <path fill-rule="evenodd" clip-rule="evenodd"
          d="M5.72232 0.70319C6.06697 0.932955 6.1601 1.39861 5.93033 1.74325L2.53725 6.83288H7.85508C8.68808 6.83288 9.3863 7.40994 9.5718 8.18612L11.5517 8.18615C11.7371 7.40988 12.4354 6.83272 13.2685 6.83272H19.2955L23.1329 1.0767C23.3626 0.732055 23.8283 0.638924 24.1729 0.868689C24.5176 1.09845 24.6107 1.56411 24.381 1.90875L20.6923 7.4417C20.961 7.75139 21.1236 8.15557 21.1236 8.59773V9.61274C21.1236 12.2693 18.97 14.4228 16.3135 14.4228C13.6815 14.4228 11.5433 12.3088 11.504 9.68615L9.61954 9.68612C9.58041 12.3089 7.44211 14.4229 4.81004 14.4229C2.15353 14.4229 0 12.2694 0 9.6129V8.59789C0 7.97925 0.318275 7.43495 0.800012 7.1198L0.622215 7.00127L4.68226 0.911203C4.91202 0.566556 5.37768 0.473426 5.72232 0.70319ZM13.2685 8.33272C13.1221 8.33272 13.0035 8.45137 13.0035 8.59773V9.61274C13.0035 11.4408 14.4854 12.9228 16.3135 12.9228C18.1416 12.9228 19.6236 11.4408 19.6236 9.61274V8.59773C19.6236 8.45137 19.5049 8.33272 19.3586 8.33272H13.2685ZM1.76501 8.33288C1.61865 8.33288 1.5 8.45153 1.5 8.59789V9.6129C1.5 11.441 2.98196 12.9229 4.81004 12.9229C6.63813 12.9229 8.12009 11.441 8.12009 9.61291V8.59789C8.12009 8.45153 8.00144 8.33288 7.85508 8.33288H1.76501Z"
          style="fill: var(--icon-color); transition: var(--custom-transition)"/>
</svg>