<svg width="32" height="33" viewBox="0 0 32 33" fill="none" xmlns="http://www.w3.org/2000/svg">
    <path d="M15.9997 2.15137C13.1029 2.15137 10.2713 3.01035 7.86271 4.61969C5.45416 6.22903 3.57693 8.51645 2.46839 11.1927C1.35986 13.8689 1.06982 16.8138 1.63494 19.6548C2.20007 22.4959 3.59498 25.1056 5.64328 27.1539C7.69158 29.2022 10.3013 30.5971 13.1424 31.1623C15.9834 31.7274 18.9283 31.4373 21.6045 30.3288C24.2808 29.2203 26.5682 27.343 28.1775 24.9345C29.7868 22.5259 30.6458 19.6943 30.6458 16.7975C30.6413 12.9145 29.0967 9.19186 26.351 6.44616C23.6053 3.70046 19.8827 2.15593 15.9997 2.15137ZM26.3287 9.89192C25.3053 10.3038 24.2531 10.6401 23.1806 10.8981C22.7248 8.86918 21.8586 6.95503 20.6352 5.27346C22.9521 6.20895 24.9352 7.81751 26.3287 9.89143V9.89192ZM21.6612 16.7975C21.6604 17.8921 21.5883 18.9854 21.4453 20.0706C20.0098 19.8391 18.5606 19.7022 17.1071 19.6608V13.9336C18.5607 13.8935 20.01 13.7585 21.446 13.5295C21.5885 14.613 21.6605 15.7046 21.6612 16.7975ZM10.3381 16.7975C10.3389 15.7032 10.411 14.6101 10.554 13.5252C11.9896 13.7563 13.4388 13.8929 14.8922 13.9343V19.6608C13.4387 19.7022 11.9895 19.8391 10.554 20.0706C10.411 18.9854 10.3389 17.8921 10.3381 16.7975ZM14.892 4.65475V11.7176C13.5711 11.6747 12.2544 11.5473 10.9498 11.3361C11.7683 7.86878 13.3024 5.4454 14.892 4.65475ZM14.892 21.8772V28.9403C13.3023 28.1496 11.7682 25.7263 10.9498 22.2591C12.2544 22.0478 13.5711 21.9202 14.892 21.8772ZM17.1074 28.9403V21.8772C18.4282 21.9201 19.745 22.0476 21.0495 22.2587C20.2311 25.7263 18.6969 28.1496 17.1074 28.9403ZM17.1074 11.7176V4.65475C18.697 5.4454 20.2312 7.86878 21.0495 11.3361C19.745 11.5473 18.4282 11.6747 17.1074 11.7176ZM11.364 5.27284C10.1407 6.95441 9.2745 8.86856 8.81875 10.8975C7.74627 10.6394 6.69413 10.3032 5.67081 9.89131C7.06406 7.8172 9.04716 6.20845 11.364 5.27284ZM4.60706 11.8391C5.83302 12.3576 7.10005 12.7731 8.395 13.0812C8.03217 15.5456 8.03217 18.0498 8.395 20.5142C7.1003 20.8225 5.83358 21.2383 4.60805 21.7573C3.92279 20.1937 3.56895 18.5051 3.56882 16.798C3.56869 15.0909 3.92229 13.4023 4.60731 11.8386L4.60706 11.8391ZM5.67081 23.7037C6.69391 23.2913 7.74588 22.9545 8.81826 22.696C9.27402 24.7254 10.1403 26.64 11.3639 28.322C9.04727 27.3864 7.06432 25.7779 5.67106 23.7041L5.67081 23.7037ZM20.635 28.322C21.8585 26.64 22.7248 24.7254 23.1806 22.696C24.253 22.9545 25.3049 23.2913 26.328 23.7037C24.9349 25.7778 22.952 27.3866 20.6352 28.3223L20.635 28.322ZM27.3913 21.7575C26.1658 21.2385 24.8991 20.8227 23.6044 20.5144C23.7846 19.2837 23.8756 18.0414 23.8766 16.7975C23.8756 15.5549 23.7848 14.314 23.605 13.0845C24.9011 12.7789 26.1696 12.3659 27.3972 11.8498C28.0798 13.4125 28.4316 15.0994 28.4306 16.8046C28.4296 18.5098 28.0757 20.1963 27.3913 21.7581V21.7575Z" fill="var(--current-color)"/>
</svg>
