<svg width="26" height="27" viewBox="0 0 26 27" fill="none" xmlns="http://www.w3.org/2000/svg">
    <path d="M13.0005 23.6532C12.7875 23.6533 12.5803 23.584 12.4102 23.4558C11.5002 22.7874 3.4495 16.7749 1.50425 11.8993C1.17894 11.084 1.01742 10.2127 1.02889 9.33496C1.04037 8.45726 1.22462 7.59042 1.57113 6.78394C1.91764 5.97745 2.41962 5.24712 3.0484 4.63465C3.67719 4.02219 4.42045 3.53957 5.23577 3.21438C6.5854 2.6809 8.07164 2.59947 9.47148 2.98231C10.8713 3.36514 12.1093 4.1916 12.9996 5.33767C13.8896 4.19126 15.1275 3.36454 16.5275 2.98168C17.9274 2.59881 19.4138 2.68047 20.7634 3.21438C21.5787 3.53957 22.3219 4.02219 22.9507 4.63465C23.5795 5.24712 24.0815 5.97745 24.428 6.78394C24.7745 7.59042 24.9588 8.45726 24.9702 9.33496C24.9817 10.2127 24.8202 11.084 24.4949 11.8993C22.5449 16.7882 14.6058 22.7106 13.5991 23.4476C13.428 23.5807 13.2174 23.6531 13.0005 23.6532ZM7.70024 4.6902C6.92801 4.69187 6.16792 4.88249 5.48628 5.24543C4.80465 5.60837 4.22219 6.13259 3.78972 6.77238C3.35726 7.41216 3.08792 8.14805 3.00522 8.91584C2.92252 9.68363 3.02897 10.46 3.31528 11.1772C4.84122 15.0017 11.0759 19.9847 13.0031 21.4602C16.0655 19.1408 21.3385 14.5489 22.6838 11.1772C22.9143 10.5998 23.0287 9.98263 23.0206 9.36098C23.0125 8.73933 22.882 8.12537 22.6366 7.55416C22.3912 6.98295 22.0356 6.46568 21.5903 6.03189C21.1449 5.59811 20.6185 5.2563 20.041 5.02599V5.02599C18.8796 4.5662 17.5837 4.583 16.4345 5.07274C15.2854 5.56249 14.3758 6.48567 13.9031 7.64192C13.83 7.82158 13.7051 7.97539 13.5442 8.08367C13.3833 8.19195 13.1938 8.24979 12.9998 8.24979C12.8059 8.24979 12.6163 8.19195 12.4555 8.08367C12.2946 7.97539 12.1696 7.82158 12.0966 7.64192C11.7397 6.76899 11.131 6.0221 10.348 5.49642C9.56505 4.97074 8.6433 4.69007 7.70024 4.6902V4.6902Z" fill="#AAAAAA"/>
</svg>
