<svg width="30" height="30" viewBox="0 0 30 30" fill="none" xmlns="http://www.w3.org/2000/svg">
    <path d="M14.9998 12.6921C16.593 12.6921 17.8845 11.4006 17.8845 9.80747C17.8845 8.21434 16.593 6.92285 14.9998 6.92285C13.4067 6.92285 12.1152 8.21434 12.1152 9.80747C12.1152 11.4006 13.4067 12.6921 14.9998 12.6921Z" fill="#00CC69"/>
    <path d="M16.4477 13.8462H13.5527C13.1366 13.8462 12.7247 13.9281 12.3403 14.0873C11.956 14.2466 11.6067 14.4799 11.3126 14.7741C11.0184 15.0683 10.7851 15.4175 10.6259 15.8019C10.4667 16.1862 10.3848 16.5982 10.3848 17.0142C10.3848 17.2043 10.4222 17.3925 10.495 17.5681C10.5677 17.7437 10.6743 17.9033 10.8087 18.0377C10.9431 18.1721 11.1027 18.2787 11.2783 18.3514C11.454 18.4242 11.6422 18.4616 11.8323 18.4616H18.168C18.3581 18.4616 18.5463 18.4242 18.722 18.3514C18.8976 18.2787 19.0572 18.1721 19.1916 18.0377C19.326 17.9033 19.4326 17.7437 19.5053 17.5681C19.5781 17.3925 19.6155 17.2043 19.6155 17.0142C19.6156 16.5982 19.5336 16.1862 19.3744 15.8019C19.2152 15.4175 18.9819 15.0683 18.6877 14.7741C18.3936 14.4799 18.0443 14.2466 17.66 14.0873C17.2756 13.9281 16.8637 13.8462 16.4477 13.8462V13.8462Z" fill="#00CC69"/>
    <path d="M24.2311 29.9999C27.4174 29.9999 30.0004 27.4169 30.0004 24.2307C30.0004 21.0444 27.4174 18.4614 24.2311 18.4614C21.0449 18.4614 18.4619 21.0444 18.4619 24.2307C18.4619 27.4169 21.0449 29.9999 24.2311 29.9999Z" fill="#00CC69"/>
    <path fill-rule="evenodd" clip-rule="evenodd" d="M27.9314 21.6841C28.382 22.1348 28.382 22.8653 27.9314 23.3159L23.8929 27.3544C23.4423 27.805 22.7117 27.805 22.2611 27.3544L20.5303 25.6236C20.0797 25.173 20.0797 24.4424 20.5303 23.9918C20.9809 23.5412 21.7115 23.5412 22.1621 23.9918L23.077 24.9067L26.2996 21.6841C26.7502 21.2335 27.4807 21.2335 27.9314 21.6841Z" fill="white"/>
    <path fill-rule="evenodd" clip-rule="evenodd" d="M4.61523 4.61535C4.61523 2.70359 6.16502 1.15381 8.07677 1.15381H21.9229C23.8347 1.15381 25.3845 2.70359 25.3845 4.61535V13.8461C25.3845 14.4834 24.8679 15 24.2306 15C23.5934 15 23.0768 14.4834 23.0768 13.8461V4.61535C23.0768 3.9781 22.5602 3.4615 21.9229 3.4615H8.07677C7.43952 3.4615 6.92293 3.9781 6.92293 4.61535V25.3846C6.92293 26.0218 7.43952 26.5384 8.07677 26.5384H14.9998C15.6371 26.5384 16.1537 27.055 16.1537 27.6923C16.1537 28.3295 15.6371 28.8461 14.9998 28.8461H8.07677C6.16502 28.8461 4.61523 27.2963 4.61523 25.3846V4.61535Z" fill="#00CC69"/>
</svg>
