<svg width="28" height="28" viewBox="0 0 28 28" fill="none" xmlns="http://www.w3.org/2000/svg">
    <path fill-rule="evenodd" clip-rule="evenodd" d="M14 25.9259C20.5865 25.9259 25.9259 20.5865 25.9259 14C25.9259 7.41349 20.5865 2.07407 14 2.07407C7.41349 2.07407 2.07407 7.41349 2.07407 14C2.07407 20.5865 7.41349 25.9259 14 25.9259ZM14 28C21.732 28 28 21.732 28 14C28 6.26801 21.732 0 14 0C6.26801 0 0 6.26801 0 14C0 21.732 6.26801 28 14 28Z" fill="var(--current-color)"/>
    <path d="M12.472 16.8339H15.5287L15.7854 5.84388H12.2154L12.472 16.8339ZM11.9354 20.5205C11.9354 21.6639 12.8454 22.5505 14.012 22.5505C15.1554 22.5505 16.042 21.6639 16.042 20.5205C16.042 19.3772 15.1554 18.4905 14.012 18.4905C12.8454 18.4905 11.9354 19.3772 11.9354 20.5205Z" fill="var(--current-color)"/>
</svg>
