<svg width="40" height="40" viewBox="0 0 40 40" fill="none" xmlns="http://www.w3.org/2000/svg">
    <path d="M25.3012 1.66602C25.3799 1.66602 25.4586 1.66602 25.5418 1.66602C25.735 4.05195 24.8243 5.83472 23.7175 7.12574C22.6315 8.40785 21.1443 9.65133 18.7391 9.46266C18.5786 7.11089 19.4908 5.46034 20.5961 4.17229C21.6212 2.97189 23.5006 1.90372 25.3012 1.66602Z" stroke="#AAAAAA" stroke-width="2"/>
    <path d="M32.5824 29.5896C32.5824 29.6134 32.5824 29.6342 32.5824 29.6565C31.9064 31.7037 30.9423 33.4582 29.7656 35.0865C28.6915 36.5647 27.3752 38.554 25.0249 38.554C22.9941 38.554 21.6451 37.2481 19.5637 37.2125C17.362 37.1768 16.1512 38.3044 14.1382 38.5882C13.9079 38.5882 13.6776 38.5882 13.4518 38.5882C11.9736 38.3742 10.7806 37.2035 9.91153 36.1487C7.3488 33.0319 5.36844 29.0058 5 23.8536C5 23.3485 5 22.8448 5 22.3397C5.15599 18.6524 6.94767 15.6543 9.32916 14.2014C10.586 13.4288 12.3138 12.7707 14.2377 13.0649C15.0622 13.1926 15.9046 13.4749 16.643 13.7542C17.3427 14.0231 18.2177 14.5 19.0467 14.4747C19.6083 14.4584 20.1669 14.1657 20.7329 13.9592C22.3909 13.3605 24.0162 12.6741 26.1585 12.9965C28.7331 13.3858 30.5604 14.5297 31.6895 16.2946C29.5116 17.6807 27.7897 19.7696 28.0839 23.3366C28.3454 26.5768 30.2291 28.4724 32.5824 29.5896Z" stroke="#AAAAAA" stroke-width="2"/>
</svg>
