<svg width="32" height="33" viewBox="0 0 32 33" fill="none" xmlns="http://www.w3.org/2000/svg">
    <path d="M9.8456 18.028C10.089 18.028 10.3269 17.9558 10.5292 17.8205C10.7316 17.6853 10.8893 17.4931 10.9824 17.2682C11.0756 17.0434 11.0999 16.7959 11.0525 16.5572C11.005 16.3185 10.8878 16.0992 10.7157 15.9271L6.66295 11.8742H24.6148C24.9412 11.8742 25.2543 11.7445 25.4851 11.5137C25.7159 11.2829 25.8456 10.9698 25.8456 10.6434C25.8456 10.317 25.7159 10.0039 25.4851 9.77313C25.2543 9.54232 24.9412 9.41265 24.6148 9.41265H6.66295L10.7157 5.35972C10.9399 5.1276 11.064 4.8167 11.0612 4.494C11.0584 4.1713 10.929 3.8626 10.7008 3.63441C10.4726 3.40622 10.1639 3.27678 9.84117 3.27397C9.51846 3.27117 9.20757 3.39522 8.97544 3.61942L2.8216 9.77326C2.70726 9.8875 2.61656 10.0231 2.55467 10.1724C2.49279 10.3218 2.46094 10.4818 2.46094 10.6434C2.46094 10.805 2.49279 10.9651 2.55467 11.1144C2.61656 11.2637 2.70726 11.3993 2.8216 11.5136L8.97544 17.6674C9.08957 17.7819 9.2252 17.8727 9.37453 17.9346C9.52386 17.9965 9.68395 18.0282 9.8456 18.028Z" fill="var(--current-color)"/>
    <path d="M29.1783 22.0809L23.0245 15.927C22.7923 15.7028 22.4814 15.5788 22.1587 15.5816C21.836 15.5844 21.5273 15.7138 21.2991 15.942C21.0709 16.1702 20.9415 16.4789 20.9387 16.8016C20.9359 17.1243 21.0599 17.4352 21.2841 17.6673L25.3369 21.7203H7.38507C7.05865 21.7203 6.7456 21.8499 6.51478 22.0807C6.28397 22.3116 6.1543 22.6246 6.1543 22.951C6.1543 23.2775 6.28397 23.5905 6.51478 23.8213C6.7456 24.0521 7.05865 24.1818 7.38507 24.1818H25.3369L21.2841 28.2347C21.1666 28.3483 21.0728 28.4841 21.0083 28.6342C20.9438 28.7844 20.9099 28.9459 20.9084 29.1093C20.907 29.2727 20.9382 29.4348 21.0001 29.5861C21.0619 29.7373 21.1533 29.8747 21.2689 29.9903C21.3844 30.1059 21.5219 30.1972 21.6731 30.2591C21.8244 30.321 21.9864 30.3521 22.1499 30.3507C22.3133 30.3493 22.4748 30.3154 22.6249 30.2509C22.7751 30.1863 22.9109 30.0926 23.0245 29.975L29.1783 23.8212C29.2926 23.707 29.3833 23.5713 29.4452 23.422C29.5071 23.2727 29.539 23.1127 29.539 22.951C29.539 22.7894 29.5071 22.6294 29.4452 22.4801C29.3833 22.3308 29.2926 22.1951 29.1783 22.0809Z" fill="var(--current-color)"/>
</svg>
