<svg width="37" height="43" viewBox="0 0 37 43" fill="none" xmlns="http://www.w3.org/2000/svg">
    <path fill-rule="evenodd" clip-rule="evenodd"
          d="M28.4914 29.2512C30.8535 26.2411 32.2765 22.3555 32.2765 18.1134C32.2765 8.55458 25.0512 0.805664 16.1383 0.805664C7.22534 0.805664 0 8.55458 0 18.1134C0 27.6721 7.22534 35.4211 16.1383 35.4211C19.2046 35.4211 22.0713 34.5039 24.5127 32.9114C24.6361 33.1644 24.7969 33.402 24.9952 33.6146L32.2765 41.1903C33.3269 42.3168 35.0299 42.3168 36.0803 41.1903C37.1307 40.0638 37.1307 38.2373 36.0803 37.1108L28.799 29.5352C28.7017 29.4308 28.5989 29.3362 28.4914 29.2512ZM16.1383 31.5749C23.0705 31.5749 28.6902 25.548 28.6902 18.1134C28.6902 10.6788 23.0705 4.65182 16.1383 4.65182C9.20599 4.65182 3.58628 10.6788 3.58628 18.1134C3.58628 25.548 9.20599 31.5749 16.1383 31.5749Z"
          fill="var(--current-color)"/>
</svg>