<svg width="64" height="41" viewBox="0 0 64 41" fill="none" xmlns="http://www.w3.org/2000/svg">
    <path d="M0.5 3.35861C0.5 1.94852 1.64292 0.80542 3.05277 0.80542L60.4902 0.80542C61.9 0.80542 63.0429 1.94852 63.0429 3.35861V38.2522C63.0429 39.6623 61.9 40.8054 60.4902 40.8054H3.05277C1.64291 40.8054 0.5 39.6623 0.5 38.2522L0.5 3.35861Z"
          fill="#3559FF"/>
    <path d="M0.5 3.35861C0.5 1.94852 1.64292 0.80542 3.05277 0.80542L60.4902 0.80542C61.9 0.80542 63.0429 1.94852 63.0429 3.35861V38.2522C63.0429 39.6623 61.9 40.8054 60.4902 40.8054H3.05277C1.64291 40.8054 0.5 39.6623 0.5 38.2522L0.5 3.35861Z"
          fill="url(#paint0_radial_11901_37222)"/>
    <path d="M41.6453 4.90175H47.098C47.8592 4.90175 48.3326 5.52498 48.1551 6.29213L45.6164 17.2411C45.4372 18.0056 44.6752 18.6294 43.9135 18.6294H38.4612C37.7011 18.6294 37.2267 18.0056 37.4042 17.2411L39.9439 6.29213C40.1215 5.52498 40.8832 4.90175 41.6453 4.90175Z"
          fill="#E21836"/>
    <path d="M46.6444 4.90175H52.915C53.676 4.90175 53.3329 5.52498 53.1538 6.29213L50.6156 17.2411C50.4375 18.0056 50.493 18.6294 49.7304 18.6294H43.4599C42.6972 18.6294 42.2253 18.0056 42.4045 17.2411L44.9426 6.29213C45.1228 5.52498 45.8829 4.90175 46.6444 4.90175Z"
          fill="#00447C"/>
    <path d="M52.6668 4.90175H58.1196C58.8818 4.90175 59.3552 5.52498 59.1762 6.29213L56.6379 17.2411C56.4588 18.0056 55.6961 18.6294 54.9341 18.6294H49.4838C48.7212 18.6294 48.2482 18.0056 48.4268 17.2411L50.9655 6.29213C51.143 5.52498 51.9042 4.90175 52.6668 4.90175Z"
          fill="#007B84"/>
    <defs>
        <radialGradient id="paint0_radial_11901_37222" cx="0" cy="0" r="1" gradientUnits="userSpaceOnUse"
                        gradientTransform="translate(0.499996 40.8054) rotate(-32.6014) scale(74.2403 116.026)">
            <stop stop-color="#007B84"/>
            <stop offset="0.446355" stop-color="#00447C"/>
            <stop offset="1" stop-color="#E21836"/>
        </radialGradient>
    </defs>
</svg>