<svg width="21" height="20" viewBox="0 0 21 20" fill="none" xmlns="http://www.w3.org/2000/svg">
    <g clip-path="url(#clip0_14814_1825)">
        <path d="M18.9615 2.30859H2.03846C1.63058 2.30906 1.23954 2.4713 0.951122 2.75972C0.662706 3.04813 0.500468 3.43917 0.5 3.84706L0.5 16.1547C0.500468 16.5626 0.662706 16.9537 0.951122 17.2421C1.23954 17.5305 1.63058 17.6927 2.03846 17.6932H18.9615C19.3694 17.6927 19.7605 17.5305 20.0489 17.2421C20.3373 16.9537 20.4995 16.5626 20.5 16.1547V3.84706C20.4995 3.43917 20.3373 3.04813 20.0489 2.75972C19.7605 2.4713 19.3694 2.30906 18.9615 2.30859V2.30859ZM2.03846 16.1547V3.84706H10.1154V16.1547H2.03846ZM11.6538 16.1547V3.84706H18.9615L18.9627 16.1547H11.6538Z" fill="black" fill-opacity="0.5"/>
        <path d="M14.4026 5.76953H16.2112C16.3198 5.76952 16.4272 5.79089 16.5275 5.83241C16.6278 5.87394 16.7189 5.93481 16.7956 6.01155C16.8724 6.08828 16.9333 6.17939 16.9748 6.27965C17.0163 6.37992 17.0377 6.48739 17.0377 6.59592V8.40453C17.0377 8.62374 16.9506 8.83398 16.7956 8.98898C16.6406 9.14399 16.4304 9.23107 16.2112 9.23107H14.4026C14.1834 9.23107 13.9732 9.144 13.8182 8.98903C13.6632 8.83405 13.5762 8.62386 13.5762 8.40469V6.59592C13.5762 6.37674 13.6632 6.16655 13.8182 6.01157C13.9732 5.8566 14.1834 5.76953 14.4026 5.76953V5.76953Z" fill="black" fill-opacity="0.5"/>
    </g>
    <defs>
        <clipPath id="clip0_14814_1825">
            <rect width="20" height="20" fill="white" transform="translate(0.5)"/>
        </clipPath>
    </defs>
</svg>
