<svg width="30" height="30" viewBox="0 0 30 30" fill="none" xmlns="http://www.w3.org/2000/svg">
    <path d="M23.3634 5.2489H7.16193C7.14145 5.2489 7.12255 5.25422 7.10238 5.2552C6.96495 5.18571 6.85174 5.07631 6.77758 4.94135C6.70342 4.80638 6.67177 4.65216 6.6868 4.4989C6.6868 4.05175 6.94465 3.71777 7.17498 3.71777H23.9994C24.2978 3.71777 24.5839 3.59925 24.7949 3.38827C25.0059 3.17729 25.1244 2.89114 25.1244 2.59277C25.1244 2.2944 25.0059 2.00826 24.7949 1.79728C24.5839 1.5863 24.2978 1.46777 23.9994 1.46777H7.17498C6.41094 1.50941 5.69434 1.85141 5.18141 2.41921C4.66848 2.98701 4.40083 3.73457 4.4368 4.4989C4.4368 4.5814 4.45293 4.65835 4.4587 4.7389C4.45758 4.75967 4.45255 4.77917 4.45255 4.80025V26.3627C4.45321 26.9415 4.68341 27.4964 5.09265 27.9056C5.50189 28.3148 6.05675 28.545 6.6355 28.5457H23.3634C23.9421 28.545 24.497 28.3148 24.9062 27.9056C25.3154 27.4964 25.5456 26.9415 25.5463 26.3627V7.43185C25.5456 6.8531 25.3154 6.29823 24.9062 5.88899C24.497 5.47975 23.9421 5.24955 23.3634 5.2489ZM23.2963 26.2958H6.70255V7.47707C6.85797 7.50996 7.01621 7.5277 7.17505 7.53002H22.443C22.5284 7.5293 22.6135 7.51885 22.6965 7.4989H23.2965L23.2963 26.2958Z" fill="#00CC69"/>
    <path d="M19.5 21H10.5C10.2016 21 9.91548 21.1185 9.7045 21.3295C9.49353 21.5405 9.375 21.8266 9.375 22.125C9.375 22.4234 9.49353 22.7095 9.7045 22.9205C9.91548 23.1315 10.2016 23.25 10.5 23.25H19.5C19.7984 23.25 20.0845 23.1315 20.2955 22.9205C20.5065 22.7095 20.625 22.4234 20.625 22.125C20.625 21.8266 20.5065 21.5405 20.2955 21.3295C20.0845 21.1185 19.7984 21 19.5 21Z" fill="#00CC69"/>
    <path d="M15 18.75C15.89 18.75 16.76 18.4861 17.5001 17.9916C18.2401 17.4971 18.8169 16.7943 19.1575 15.9721C19.4981 15.1498 19.5872 14.245 19.4135 13.3721C19.2399 12.4992 18.8113 11.6974 18.182 11.068C17.5526 10.4387 16.7508 10.0101 15.8779 9.83647C15.005 9.66283 14.1002 9.75195 13.2779 10.0925C12.4557 10.4331 11.7529 11.0099 11.2584 11.7499C10.7639 12.49 10.5 13.36 10.5 14.25C10.5013 15.4431 10.9758 16.5869 11.8195 17.4305C12.6631 18.2742 13.8069 18.7487 15 18.75ZM15 12C15.445 12 15.88 12.132 16.25 12.3792C16.62 12.6264 16.9084 12.9778 17.0787 13.389C17.249 13.8001 17.2936 14.2525 17.2068 14.689C17.12 15.1254 16.9057 15.5263 16.591 15.841C16.2763 16.1557 15.8754 16.37 15.439 16.4568C15.0025 16.5436 14.5501 16.499 14.139 16.3287C13.7278 16.1584 13.3764 15.87 13.1292 15.5C12.882 15.13 12.75 14.695 12.75 14.25C12.7507 13.6535 12.9879 13.0816 13.4097 12.6597C13.8315 12.2379 14.4035 12.0007 15 12Z" fill="#00CC69"/>
</svg>
