<svg width="21" height="20" viewBox="0 0 21 20" fill="none" xmlns="http://www.w3.org/2000/svg">
    <g clip-path="url(#clip0_14814_1820)">
        <path d="M16.6547 0H4.34706C3.93917 0.000468257 3.54813 0.162706 3.25972 0.451122C2.9713 0.739538 2.80906 1.13058 2.80859 1.53846V18.4615C2.80906 18.8694 2.9713 19.2605 3.25972 19.5489C3.54813 19.8373 3.93917 19.9995 4.34706 20H16.6547C17.0626 19.9995 17.4537 19.8373 17.7421 19.5489C18.0305 19.2605 18.1927 18.8694 18.1932 18.4615V1.53846C18.1927 1.13058 18.0305 0.739538 17.7421 0.451122C17.4537 0.162706 17.0626 0.000468257 16.6547 0V0ZM4.34706 1.53846H16.6547V9.23077H4.34706V1.53846ZM4.34706 18.4615V10.7692H16.6547L16.6559 18.4615H4.34706Z" fill="black" fill-opacity="0.5"/>
        <path d="M8.19276 14.616C9.04243 14.616 9.73122 13.9272 9.73122 13.0775C9.73122 12.2279 9.04243 11.5391 8.19276 11.5391C7.34309 11.5391 6.6543 12.2279 6.6543 13.0775C6.6543 13.9272 7.34309 14.616 8.19276 14.616Z" fill="black" fill-opacity="0.5"/>
        <path d="M8.6183 15.3848H7.76661C7.51948 15.3848 7.27477 15.4334 7.04645 15.528C6.81813 15.6226 6.61067 15.7612 6.43592 15.9359C6.26118 16.1107 6.12256 16.3181 6.02799 16.5464C5.93342 16.7748 5.88476 17.0195 5.88477 17.2666C5.88477 17.3225 5.89578 17.3779 5.91718 17.4296C5.93858 17.4812 5.96995 17.5282 6.00949 17.5677C6.04904 17.6073 6.09598 17.6386 6.14765 17.66C6.19931 17.6814 6.25469 17.6925 6.31061 17.6925H10.0743C10.1872 17.6925 10.2956 17.6476 10.3754 17.5677C10.4553 17.4879 10.5002 17.3796 10.5002 17.2666C10.5002 17.0195 10.4515 16.7748 10.3569 16.5464C10.2624 16.3181 10.1237 16.1107 9.94899 15.9359C9.77424 15.7612 9.56679 15.6226 9.33847 15.528C9.11015 15.4334 8.86543 15.3848 8.6183 15.3848V15.3848Z" fill="black" fill-opacity="0.5"/>
    </g>
    <defs>
        <clipPath id="clip0_14814_1820">
            <rect width="20" height="20" fill="white" transform="translate(0.5)"/>
        </clipPath>
    </defs>
</svg>
