<svg width="26" height="26" viewBox="0 0 26 26" fill="none" xmlns="http://www.w3.org/2000/svg">
    <path d="M22 4H4C2.9395 4.00119 1.92278 4.423 1.17289 5.17289C0.423001 5.92278 0.00119105 6.9395 0 8L0 18C0.00119105 19.0605 0.423001 20.0772 1.17289 20.8271C1.92278 21.577 2.9395 21.9988 4 22H22C23.0605 21.9988 24.0772 21.577 24.8271 20.8271C25.577 20.0772 25.9988 19.0605 26 18V8C25.9988 6.9395 25.577 5.92278 24.8271 5.17289C24.0772 4.423 23.0605 4.00119 22 4ZM24 18C23.9995 18.5303 23.7886 19.0387 23.4136 19.4136C23.0387 19.7886 22.5303 19.9995 22 20H4C3.46973 19.9995 2.96133 19.7886 2.58637 19.4136C2.21141 19.0387 2.00053 18.5303 2 18V8C2.00053 7.46973 2.21141 6.96133 2.58637 6.58637C2.96133 6.21141 3.46973 6.00053 4 6H22C22.5303 6.00053 23.0387 6.21141 23.4136 6.58637C23.7886 6.96133 23.9995 7.46973 24 8V18Z" fill="#AAAAAA"/>
    <path d="M4.57692 13.8271H5.50077L5.03923 14.6271C4.99996 14.6928 4.97414 14.7656 4.96327 14.8413C4.9524 14.917 4.95671 14.9942 4.97594 15.0682C4.99517 15.1423 5.02893 15.2118 5.07527 15.2727C5.12161 15.3335 5.17959 15.3846 5.24585 15.4229C5.31211 15.4611 5.38531 15.4858 5.4612 15.4955C5.53709 15.5052 5.61416 15.4997 5.68791 15.4794C5.76166 15.459 5.83062 15.4242 5.89078 15.3769C5.95094 15.3296 6.0011 15.2709 6.03833 15.204L6.5 14.404L6.96199 15.2042C6.99922 15.2711 7.04938 15.3298 7.10954 15.3771C7.1697 15.4244 7.23866 15.4592 7.31241 15.4796C7.38616 15.4999 7.46323 15.5054 7.53912 15.4957C7.61501 15.486 7.68821 15.4613 7.75447 15.4231C7.82073 15.3848 7.87871 15.3337 7.92505 15.2729C7.97139 15.212 8.00515 15.1425 8.02438 15.0684C8.04361 14.9944 8.04792 14.9172 8.03705 14.8415C8.02618 14.7658 8.00036 14.693 7.96109 14.6273L7.49923 13.8271H8.42308C8.57609 13.8271 8.72283 13.7663 8.83102 13.6581C8.93922 13.5499 9 13.4032 9 13.2502C9 13.0972 8.93922 12.9504 8.83102 12.8422C8.72283 12.734 8.57609 12.6733 8.42308 12.6733H7.49923L7.96109 11.8733C8.00036 11.8076 8.02618 11.7348 8.03705 11.659C8.04792 11.5833 8.04361 11.5062 8.02438 11.4321C8.00515 11.3581 7.97139 11.2886 7.92505 11.2277C7.87871 11.1668 7.82073 11.1158 7.75447 11.0775C7.68821 11.0392 7.61501 11.0145 7.53912 11.0048C7.46323 10.9951 7.38616 11.0006 7.31241 11.021C7.23866 11.0414 7.1697 11.0762 7.10954 11.1235C7.04938 11.1707 6.99922 11.2295 6.96199 11.2963L6.5 12.0963L6.03801 11.2961C6.00078 11.2293 5.95062 11.1705 5.89046 11.1233C5.8303 11.076 5.76134 11.0412 5.68759 11.0208C5.61384 11.0004 5.53677 10.995 5.46088 11.0047C5.38499 11.0144 5.31179 11.0391 5.24553 11.0773C5.17927 11.1156 5.12129 11.1666 5.07495 11.2275C5.02861 11.2884 4.99485 11.3579 4.97562 11.4319C4.95639 11.506 4.95208 11.5831 4.96295 11.6589C4.97382 11.7346 4.99964 11.8074 5.03891 11.8731L5.50045 12.6731H4.57692C4.42391 12.6731 4.27717 12.7338 4.16898 12.842C4.06078 12.9502 4 13.097 4 13.25C4 13.403 4.06078 13.5497 4.16898 13.6579C4.27717 13.7661 4.42391 13.8269 4.57692 13.8269V13.8271Z" fill="#AAAAAA"/>
    <path d="M11.0769 13.8271H12.0008L11.5392 14.6271C11.5 14.6928 11.4741 14.7656 11.4633 14.8413C11.4524 14.917 11.4567 14.9942 11.4759 15.0682C11.4952 15.1423 11.5289 15.2118 11.5753 15.2727C11.6216 15.3335 11.6796 15.3846 11.7459 15.4229C11.8121 15.4611 11.8853 15.4858 11.9612 15.4955C12.0371 15.5052 12.1142 15.4997 12.1879 15.4794C12.2617 15.459 12.3306 15.4242 12.3908 15.3769C12.4509 15.3296 12.5011 15.2709 12.5383 15.204L13 14.404L13.462 15.2042C13.4992 15.2711 13.5494 15.3298 13.6095 15.3771C13.6697 15.4244 13.7387 15.4592 13.8124 15.4796C13.8862 15.4999 13.9632 15.5054 14.0391 15.4957C14.115 15.486 14.1882 15.4613 14.2545 15.4231C14.3207 15.3848 14.3787 15.3337 14.425 15.2729C14.4714 15.212 14.5052 15.1425 14.5244 15.0684C14.5436 14.9944 14.5479 14.9172 14.537 14.8415C14.5262 14.7658 14.5004 14.693 14.4611 14.6273L13.9996 13.8273H14.9231C15.0761 13.8273 15.2228 13.7665 15.331 13.6583C15.4392 13.5501 15.5 13.4034 15.5 13.2504C15.5 13.0974 15.4392 12.9506 15.331 12.8424C15.2228 12.7342 15.0761 12.6735 14.9231 12.6735H13.9992L14.4608 11.8735C14.5345 11.7411 14.5532 11.5851 14.5129 11.4391C14.4726 11.2931 14.3765 11.1688 14.2453 11.0931C14.1141 11.0173 13.9584 10.9962 13.8118 11.0343C13.6652 11.0723 13.5394 11.1665 13.4617 11.2965L13 12.0963L12.538 11.2961C12.5008 11.2293 12.4506 11.1705 12.3905 11.1233C12.3303 11.076 12.2613 11.0412 12.1876 11.0208C12.1138 11.0004 12.0368 10.995 11.9609 11.0047C11.885 11.0144 11.8118 11.0391 11.7455 11.0773C11.6793 11.1156 11.6213 11.1666 11.575 11.2275C11.5286 11.2884 11.4948 11.3579 11.4756 11.4319C11.4564 11.506 11.4521 11.5831 11.463 11.6589C11.4738 11.7346 11.4996 11.8074 11.5389 11.8731L12.0004 12.6731H11.0769C10.9239 12.6731 10.7772 12.7339 10.669 12.842C10.5608 12.9502 10.5 13.097 10.5 13.25C10.5 13.403 10.5608 13.5497 10.669 13.6579C10.7772 13.7661 10.9239 13.8269 11.0769 13.8269V13.8271Z" fill="#AAAAAA"/>
    <path d="M17.5769 13.8271H18.5008L18.0392 14.6271C18 14.6928 17.9741 14.7656 17.9633 14.8413C17.9524 14.917 17.9567 14.9942 17.9759 15.0682C17.9952 15.1423 18.0289 15.2118 18.0753 15.2727C18.1216 15.3335 18.1796 15.3846 18.2458 15.4229C18.3121 15.4611 18.3853 15.4858 18.4612 15.4955C18.5371 15.5052 18.6142 15.4997 18.6879 15.4794C18.7617 15.459 18.8306 15.4242 18.8908 15.3769C18.9509 15.3296 19.0011 15.2709 19.0383 15.204L19.5 14.404L19.962 15.2042C20.0397 15.3342 20.1655 15.4284 20.3121 15.4665C20.4587 15.5046 20.6144 15.4834 20.7456 15.4077C20.8768 15.3319 20.9729 15.2076 21.0132 15.0616C21.0535 14.9156 21.0348 14.7596 20.9611 14.6273L20.4996 13.8273H21.4231C21.5761 13.8273 21.7228 13.7665 21.831 13.6583C21.9392 13.5501 22 13.4034 22 13.2504C22 13.0974 21.9392 12.9506 21.831 12.8424C21.7228 12.7342 21.5761 12.6735 21.4231 12.6735H20.4992L20.9608 11.8735C21.0345 11.7411 21.0532 11.5851 21.0129 11.4391C20.9726 11.2931 20.8765 11.1688 20.7453 11.0931C20.6141 11.0173 20.4584 10.9962 20.3118 11.0343C20.1652 11.0723 20.0394 11.1665 19.9617 11.2965L19.5 12.0963L19.038 11.2961C19.0008 11.2293 18.9506 11.1705 18.8905 11.1233C18.8303 11.076 18.7613 11.0412 18.6876 11.0208C18.6138 11.0004 18.5368 10.995 18.4609 11.0047C18.385 11.0144 18.3118 11.0391 18.2455 11.0773C18.1793 11.1156 18.1213 11.1666 18.075 11.2275C18.0286 11.2884 17.9948 11.3579 17.9756 11.4319C17.9564 11.506 17.9521 11.5831 17.9629 11.6589C17.9738 11.7346 17.9996 11.8074 18.0389 11.8731L18.5004 12.6731H17.5769C17.4239 12.6731 17.2772 12.7339 17.169 12.842C17.0608 12.9502 17 13.097 17 13.25C17 13.403 17.0608 13.5497 17.169 13.6579C17.2772 13.7661 17.4239 13.8269 17.5769 13.8269V13.8271Z" fill="#AAAAAA"/>
</svg>
