<svg width="43" height="44" viewBox="0 0 43 44" fill="none" xmlns="http://www.w3.org/2000/svg">
    <path fill-rule="evenodd" clip-rule="evenodd"
          d="M6.90543 37.4654L6.90643 37.4669C10.7292 41.4339 16.0109 43.8877 21.8443 43.8877C33.4635 43.8877 42.8926 34.1541 42.9716 22.1157C42.9716 22.0649 42.9721 22.0143 42.9721 21.9634C42.9721 21.9125 42.9716 21.8619 42.9716 21.811C42.9321 15.8177 40.5753 10.3955 36.7846 6.46117L36.7826 6.45961C32.9593 2.49283 27.6781 0.0390625 21.8443 0.0390625C16.0109 0.0390625 10.7292 2.49283 6.90643 6.45961L6.90543 6.46117C3.08269 10.4287 0.717926 15.9095 0.717926 21.9634C0.717926 28.0172 3.08269 33.4981 6.90543 37.4654ZM15.6558 15.541V28.3858C11.833 24.4185 6.55181 21.9634 0.717926 21.9634C6.55281 21.9634 11.833 19.5091 15.6558 15.541ZM28.0338 15.541H15.6558C19.479 11.5737 21.8443 6.09291 21.8443 0.0390625C21.8443 6.09291 24.211 11.5737 28.0338 15.541ZM28.0338 15.541V28.3858H15.6558C19.48 32.3533 21.8443 37.8331 21.8443 43.8877C21.8443 37.8339 24.211 32.3531 28.0338 28.3858C31.857 24.4177 37.1372 21.9634 42.9721 21.9634C37.1372 21.9634 31.857 19.5091 28.0338 15.541Z"
          fill="var(--current-color)"/>
</svg>