<svg width="26" height="19" viewBox="0 0 26 19" fill="none" xmlns="http://www.w3.org/2000/svg">
    <path d="M22 0.804688H4C2.9395 0.805879 1.92278 1.22769 1.17289 1.97758C0.423001 2.72746 0.00119105 3.74419 0 4.80469L0 14.8047C0.00119105 15.8652 0.423001 16.8819 1.17289 17.6318C1.92278 18.3817 2.9395 18.8035 4 18.8047H22C23.0605 18.8035 24.0772 18.3817 24.8271 17.6318C25.577 16.8819 25.9988 15.8652 26 14.8047V4.80469C25.9988 3.74419 25.577 2.72746 24.8271 1.97758C24.0772 1.22769 23.0605 0.805879 22 0.804688ZM24 14.8047C23.9995 15.335 23.7886 15.8434 23.4136 16.2183C23.0387 16.5933 22.5303 16.8042 22 16.8047H4C3.46973 16.8042 2.96133 16.5933 2.58637 16.2183C2.21141 15.8434 2.00053 15.335 2 14.8047V4.80469C2.00053 4.27442 2.21141 3.76602 2.58637 3.39106C2.96133 3.0161 3.46973 2.80522 4 2.80469H22C22.5303 2.80522 23.0387 3.0161 23.4136 3.39106C23.7886 3.76602 23.9995 4.27442 24 4.80469V14.8047Z" fill="#AAAAAA"/>
    <path d="M6.88088 12.04C6.7346 12.0184 6.58536 12.0295 6.44385 12.0724C6.30235 12.1153 6.17209 12.189 6.06242 12.2882C5.95275 12.3873 5.86638 12.5096 5.80951 12.646C5.75264 12.7825 5.72668 12.9299 5.73348 13.0776C5.73348 13.7124 6.12408 14.103 6.88088 14.103C7.62558 14.103 8.04088 13.7124 8.04088 13.0776C8.0452 12.9295 8.0171 12.7822 7.95857 12.646C7.90004 12.5098 7.81248 12.3881 7.702 12.2893C7.59153 12.1904 7.46082 12.1169 7.31899 12.0739C7.17716 12.0308 7.02764 12.0193 6.88088 12.04Z" fill="#AAAAAA"/>
    <path d="M7.2229 5.55801C6.55885 5.53951 5.90305 5.70876 5.3309 6.04631C5.11129 6.1507 4.94115 6.33675 4.85677 6.56479C4.77239 6.79283 4.78043 7.04482 4.8792 7.26701C4.93214 7.36016 5.00384 7.44132 5.08976 7.50534C5.17568 7.56936 5.27395 7.61485 5.37835 7.63894C5.48275 7.66303 5.59102 7.66519 5.6963 7.64529C5.80159 7.62538 5.90159 7.58385 5.99 7.52331C6.26779 7.38138 6.57035 7.29436 6.8811 7.26701C7.284 7.26701 7.4183 7.47451 7.4183 7.68201C7.4183 8.02381 7.2352 8.26801 6.6983 8.81731C6.47069 9.0323 6.28942 9.29154 6.1656 9.57911C6.04179 9.86668 5.97805 10.1765 5.9783 10.4896C5.96183 10.6095 5.97249 10.7315 6.00949 10.8467C6.04649 10.962 6.10888 11.0674 6.19206 11.1553C6.27525 11.2431 6.3771 11.3112 6.49011 11.3545C6.60312 11.3977 6.7244 11.4151 6.845 11.4052C6.96619 11.4205 7.08927 11.4081 7.20496 11.3689C7.32065 11.3297 7.42593 11.2648 7.51287 11.179C7.5998 11.0932 7.66612 10.9887 7.70682 10.8736C7.74751 10.7584 7.76152 10.6355 7.7478 10.5141C7.75881 10.2623 7.82991 10.0168 7.95516 9.79801C8.08042 9.57927 8.25619 9.39367 8.4678 9.25671C8.78431 9.05714 9.04822 8.78441 9.23729 8.46151C9.42636 8.13861 9.53505 7.775 9.5542 7.40131C9.5545 6.49791 8.8953 5.55801 7.2229 5.55801Z" fill="#AAAAAA"/>
    <path d="M12.4825 12.04C12.3363 12.0184 12.187 12.0295 12.0455 12.0724C11.904 12.1153 11.7737 12.189 11.664 12.2881C11.5543 12.3873 11.468 12.5095 11.4111 12.646C11.3542 12.7825 11.3282 12.9299 11.335 13.0776C11.335 13.7124 11.7257 14.103 12.4825 14.103C13.2271 14.103 13.6425 13.7124 13.6425 13.0776C13.6468 12.9295 13.6187 12.7822 13.5602 12.646C13.5017 12.5099 13.4141 12.3881 13.3036 12.2893C13.1932 12.1905 13.0625 12.117 12.9206 12.074C12.7788 12.0309 12.6293 12.0193 12.4825 12.04Z" fill="#AAAAAA"/>
    <path d="M12.8244 5.55801C12.1604 5.53952 11.5045 5.70877 10.9323 6.04631C10.7128 6.15073 10.5427 6.33679 10.4583 6.56483C10.374 6.79286 10.382 7.04483 10.4807 7.26701C10.5337 7.36017 10.6054 7.44134 10.6913 7.50537C10.7772 7.56939 10.8755 7.61489 10.9799 7.63898C11.0843 7.66307 11.1926 7.66523 11.2979 7.64532C11.4031 7.62541 11.5031 7.58386 11.5915 7.52331C11.8693 7.38138 12.1719 7.29435 12.4826 7.26701C12.8854 7.26701 13.0197 7.47451 13.0197 7.68201C13.0197 8.02381 12.8366 8.26801 12.2997 8.81731C12.0721 9.0323 11.8909 9.29154 11.7671 9.57911C11.6432 9.86668 11.5795 10.1765 11.5797 10.4896C11.5633 10.6095 11.5739 10.7315 11.6109 10.8467C11.6479 10.962 11.7103 11.0674 11.7935 11.1553C11.8767 11.2431 11.9786 11.3112 12.0916 11.3545C12.2046 11.3977 12.3258 11.4151 12.4464 11.4052C12.5677 11.4206 12.6908 11.4083 12.8066 11.3691C12.9223 11.3299 13.0277 11.265 13.1147 11.1792C13.2017 11.0934 13.268 10.9889 13.3087 10.8737C13.3495 10.7585 13.3635 10.6355 13.3497 10.5141C13.3608 10.2623 13.4319 10.0168 13.5571 9.79801C13.6824 9.57927 13.8581 9.39367 14.0697 9.25671C14.3863 9.05715 14.6502 8.78443 14.8393 8.46153C15.0284 8.13863 15.1371 7.77501 15.1562 7.40131C15.156 6.49791 14.4968 5.55801 12.8244 5.55801Z" fill="#AAAAAA"/>
    <path d="M18.0841 12.04C17.9378 12.0184 17.7886 12.0295 17.647 12.0724C17.5055 12.1153 17.3753 12.189 17.2656 12.2881C17.1559 12.3873 17.0695 12.5095 17.0126 12.646C16.9558 12.7825 16.9298 12.9299 16.9366 13.0776C16.9366 13.7124 17.3272 14.103 18.0841 14.103C18.8287 14.103 19.2441 13.7124 19.2441 13.0776C19.2484 12.9295 19.2203 12.7822 19.1618 12.646C19.1032 12.5099 19.0157 12.3881 18.9052 12.2893C18.7947 12.1905 18.664 12.117 18.5222 12.074C18.3804 12.0309 18.2309 12.0193 18.0841 12.04Z" fill="#AAAAAA"/>
    <path d="M18.4261 5.55801C17.762 5.53949 17.1062 5.70874 16.534 6.04631C16.3144 6.15072 16.1443 6.33677 16.0599 6.56481C15.9755 6.79284 15.9836 7.04482 16.0823 7.26701C16.1352 7.36017 16.207 7.44132 16.2929 7.50534C16.3788 7.56937 16.4771 7.61486 16.5815 7.63895C16.6859 7.66304 16.7942 7.6652 16.8995 7.64529C17.0048 7.62539 17.1048 7.58385 17.1932 7.52331C17.471 7.38136 17.7735 7.29433 18.0843 7.26701C18.4871 7.26701 18.6214 7.47451 18.6214 7.68201C18.6214 8.02381 18.4383 8.26801 17.9014 8.81731C17.6738 9.0323 17.4925 9.29154 17.3687 9.57911C17.2449 9.86668 17.1811 10.1765 17.1814 10.4896C17.1772 10.6074 17.1965 10.7249 17.2383 10.8352C17.2801 10.9454 17.3435 11.0462 17.4247 11.1316C17.506 11.217 17.6035 11.2854 17.7116 11.3326C17.8196 11.3798 17.936 11.405 18.0539 11.4066C18.1718 11.4082 18.2888 11.3863 18.3981 11.3421C18.5074 11.2979 18.6068 11.2323 18.6904 11.1491C18.774 11.066 18.8401 10.967 18.8849 10.858C18.9298 10.7489 18.9524 10.632 18.9514 10.5141C18.9624 10.2623 19.0335 10.0168 19.1588 9.79801C19.284 9.57927 19.4598 9.39367 19.6714 9.25671C19.9879 9.05716 20.2518 8.78444 20.4409 8.46153C20.63 8.13863 20.7387 7.77501 20.7578 7.40131C20.7576 6.49791 20.0984 5.55801 18.4261 5.55801Z" fill="#AAAAAA"/>
</svg>
