<svg width="30" height="30" viewBox="0 0 30 30" fill="none" xmlns="http://www.w3.org/2000/svg">
    <path d="M21.9229 1.15381H8.07677C7.15903 1.15482 6.27915 1.51984 5.63021 2.16878C4.98126 2.81773 4.61624 3.6976 4.61523 4.61535V25.3846C4.61624 26.3023 4.98126 27.1822 5.63021 27.8311C6.27915 28.4801 7.15903 28.8451 8.07677 28.8461H21.9229C22.8407 28.8451 23.7205 28.4801 24.3695 27.8311C25.0184 27.1822 25.3835 26.3023 25.3845 25.3846V4.61535C25.3835 3.6976 25.0184 2.81773 24.3695 2.16878C23.7205 1.51984 22.8407 1.15482 21.9229 1.15381ZM23.0768 25.3846C23.0765 25.6905 22.9548 25.9838 22.7385 26.2002C22.5222 26.4165 22.2289 26.5381 21.9229 26.5384H8.07677C7.77084 26.5381 7.47751 26.4165 7.26118 26.2002C7.04486 25.9838 6.9232 25.6905 6.92293 25.3846V4.61535C6.9232 4.30941 7.04486 4.01609 7.26118 3.79976C7.47751 3.58343 7.77084 3.46178 8.07677 3.4615H21.9229C22.2289 3.46178 22.5222 3.58343 22.7385 3.79976C22.9548 4.01609 23.0765 4.30941 23.0768 4.61535V25.3846Z" fill="#00CC69"/>
    <path d="M16.4477 13.8462H13.5527C13.1366 13.8462 12.7247 13.9281 12.3403 14.0873C11.956 14.2466 11.6067 14.4799 11.3126 14.7741C11.0184 15.0683 10.7851 15.4175 10.6259 15.8019C10.4667 16.1862 10.3848 16.5982 10.3848 17.0142C10.3848 17.2043 10.4222 17.3925 10.495 17.5681C10.5677 17.7437 10.6743 17.9033 10.8087 18.0377C10.9431 18.1721 11.1027 18.2787 11.2783 18.3514C11.454 18.4242 11.6422 18.4616 11.8323 18.4616H18.168C18.3581 18.4616 18.5463 18.4242 18.722 18.3514C18.8976 18.2787 19.0572 18.1721 19.1916 18.0377C19.326 17.9033 19.4326 17.7437 19.5053 17.5681C19.5781 17.3925 19.6155 17.2043 19.6155 17.0142C19.6156 16.5982 19.5336 16.1862 19.3744 15.8019C19.2152 15.4175 18.9819 15.0683 18.6877 14.7741C18.3936 14.4799 18.0443 14.2466 17.66 14.0873C17.2756 13.9281 16.8637 13.8462 16.4477 13.8462V13.8462Z" fill="#00CC69"/>
    <path d="M14.9998 12.6921C16.593 12.6921 17.8845 11.4006 17.8845 9.80747C17.8845 8.21434 16.593 6.92285 14.9998 6.92285C13.4067 6.92285 12.1152 8.21434 12.1152 9.80747C12.1152 11.4006 13.4067 12.6921 14.9998 12.6921Z" fill="#00CC69"/>
</svg>
