<svg width="32" height="33" viewBox="0 0 32 33" fill="none" xmlns="http://www.w3.org/2000/svg">
    <path d="M22.1543 2.02832H9.8466C8.86767 2.0294 7.92915 2.41875 7.23694 3.11096C6.54473 3.80317 6.15537 4.7417 6.1543 5.72063V27.8745C6.15537 28.8534 6.54473 29.7919 7.23694 30.4841C7.92915 31.1763 8.86767 31.5657 9.8466 31.5668H22.1543C23.1332 31.5657 24.0718 31.1763 24.764 30.4841C25.4562 29.7919 25.8455 28.8534 25.8466 27.8745V5.72063C25.8455 4.7417 25.4562 3.80317 24.764 3.11096C24.0718 2.41875 23.1332 2.0294 22.1543 2.02832ZM23.3851 27.8745C23.3848 28.2008 23.255 28.5137 23.0243 28.7444C22.7935 28.9752 22.4806 29.1049 22.1543 29.1052H9.8466C9.52027 29.1049 9.20739 28.9752 8.97664 28.7444C8.74589 28.5137 8.61613 28.2008 8.61584 27.8745V5.72063C8.61613 5.3943 8.74589 5.08142 8.97664 4.85067C9.20739 4.61992 9.52027 4.49015 9.8466 4.48986H22.1543C22.4806 4.49015 22.7935 4.61992 23.0243 4.85067C23.255 5.08142 23.3848 5.3943 23.3851 5.72063V27.8745Z" fill="var(--current-color)"/>
    <path d="M19.6916 21.7202H12.3069C11.9805 21.7202 11.6675 21.8499 11.4367 22.0807C11.2058 22.3115 11.0762 22.6246 11.0762 22.951C11.0762 23.2774 11.2058 23.5905 11.4367 23.8213C11.6675 24.0521 11.9805 24.1818 12.3069 24.1818H19.6916C20.018 24.1818 20.331 24.0521 20.5618 23.8213C20.7927 23.5905 20.9223 23.2774 20.9223 22.951C20.9223 22.6246 20.7927 22.3115 20.5618 22.0807C20.331 21.8499 20.018 21.7202 19.6916 21.7202Z" fill="var(--current-color)"/>
    <path d="M16.0003 8.18175C16.68 8.18175 17.2311 7.63072 17.2311 6.95098C17.2311 6.27125 16.68 5.72021 16.0003 5.72021C15.3206 5.72021 14.7695 6.27125 14.7695 6.95098C14.7695 7.63072 15.3206 8.18175 16.0003 8.18175Z" fill="var(--current-color)"/>
</svg>
