<svg width="26" height="26" viewBox="0 0 26 26" fill="none" xmlns="http://www.w3.org/2000/svg">
    <path d="M22 4H4C2.9395 4.00119 1.92278 4.423 1.17289 5.17289C0.423001 5.92278 0.00119105 6.9395 0 8L0 18C0.00119105 19.0605 0.423001 20.0772 1.17289 20.8271C1.92278 21.577 2.9395 21.9988 4 22H22C23.0605 21.9988 24.0772 21.577 24.8271 20.8271C25.577 20.0772 25.9988 19.0605 26 18V8C25.9988 6.9395 25.577 5.92278 24.8271 5.17289C24.0772 4.423 23.0605 4.00119 22 4ZM24 18C23.9995 18.5303 23.7886 19.0387 23.4136 19.4136C23.0387 19.7886 22.5303 19.9995 22 20H4C3.46973 19.9995 2.96133 19.7886 2.58637 19.4136C2.21141 19.0387 2.00053 18.5303 2 18V8C2.00053 7.46973 2.21141 6.96133 2.58637 6.58637C2.96133 6.21141 3.46973 6.00053 4 6H22C22.5303 6.00053 23.0387 6.21141 23.4136 6.58637C23.7886 6.96133 23.9995 7.46973 24 8V18Z" fill="#AAAAAA"/>
    <path d="M7.12526 9.16016C6.97916 9.16656 6.83579 9.20197 6.70351 9.26432C6.57123 9.32668 6.45268 9.41473 6.35476 9.52336L4.62726 11.2282C4.24246 11.6355 4.17606 12.1082 4.53936 12.4274C4.93576 12.7683 5.34306 12.5485 5.72776 12.2074L6.22296 11.7567V15.9267C6.20804 16.0483 6.22007 16.1717 6.25822 16.2882C6.29636 16.4047 6.35968 16.5113 6.44367 16.6005C6.52767 16.6898 6.63028 16.7594 6.74422 16.8046C6.85816 16.8497 6.98064 16.8692 7.10296 16.8617C7.2255 16.8701 7.34839 16.8512 7.46275 16.8064C7.57711 16.7616 7.6801 16.6919 7.76429 16.6025C7.84847 16.513 7.91175 16.406 7.94957 16.2891C7.98738 16.1723 7.99879 16.0485 7.98296 15.9267V10.0842C7.98266 9.60016 7.79616 9.16016 7.12526 9.16016Z" fill="#AAAAAA"/>
    <path d="M14.406 15.3202H11.9197C12.3934 13.9447 15.1326 13.5155 15.1326 11.2387C15.1326 10.0502 14.3182 9.15871 12.7117 9.15871C11.9991 9.14675 11.2988 9.34583 10.699 9.73091C10.4969 9.83535 10.3428 10.0138 10.2689 10.229C10.1951 10.4442 10.2071 10.6796 10.3025 10.8862C10.5447 11.3262 10.9734 11.2822 11.4139 11.0952C11.7764 10.9249 12.169 10.8276 12.5691 10.8091C13.0975 10.8091 13.3719 11.04 13.3719 11.436C13.3719 12.866 10.116 13.2182 10.116 15.8916C10.1026 16.0211 10.118 16.1519 10.1612 16.2747C10.2044 16.3975 10.2743 16.5092 10.3658 16.6018C10.4573 16.6944 10.5682 16.7655 10.6905 16.8101C10.8127 16.8548 10.9434 16.8717 11.073 16.8598H14.4061C14.9236 16.8598 15.2869 16.5957 15.2869 16.0898C15.2868 15.5399 14.9235 15.3202 14.406 15.3202Z" fill="#AAAAAA"/>
    <path d="M19.1143 12.3394L20.8857 10.667C21.4023 10.117 21.2266 9.26953 20.335 9.26953H17.4971C16.9795 9.26953 16.5947 9.53373 16.5947 10.0395C16.5947 10.5895 16.9795 10.8095 17.4971 10.8095H19.0146L17.541 12.1743C17.4468 12.2634 17.3719 12.3708 17.3208 12.49C17.2697 12.6092 17.2437 12.7376 17.2441 12.8672C17.2441 13.3735 17.5518 13.6924 18.1895 13.6924C19.0479 13.6924 19.5215 13.9673 19.5215 14.5503C19.5319 14.6724 19.5147 14.7953 19.4712 14.9098C19.4277 15.0244 19.359 15.1277 19.2703 15.2122C19.1815 15.2967 19.0749 15.3601 18.9583 15.3979C18.8417 15.4356 18.7182 15.4467 18.5967 15.4303C18.2108 15.4109 17.8328 15.3136 17.4854 15.1441C17.1113 14.9791 16.584 14.8692 16.3193 15.3424C16.2185 15.5462 16.2 15.781 16.2676 15.9982C16.3352 16.2153 16.4839 16.398 16.6826 16.5084C17.2599 16.841 17.9204 17.0013 18.5859 16.9703C20.3574 16.9703 21.3916 15.9581 21.3916 14.462C21.3916 13.3735 20.6543 12.4712 19.1143 12.3394Z" fill="#AAAAAA"/>
</svg>
