<svg width="42" height="42" viewBox="0 0 42 42" fill="none" xmlns="http://www.w3.org/2000/svg">
    <path d="M39.4615 18.6923H23.3077V2.53841C23.3077 1.92637 23.0646 1.3394 22.6318 0.906621C22.199 0.473845 21.612 0.230713 21 0.230713C20.388 0.230713 19.801 0.473845 19.3682 0.906621C18.9354 1.3394 18.6923 1.92637 18.6923 2.53841V18.6923H2.53846C1.92642 18.6923 1.33945 18.9354 0.906674 19.3682C0.473898 19.8009 0.230766 20.3879 0.230766 20.9999C0.230766 21.612 0.473898 22.199 0.906674 22.6317C1.33945 23.0645 1.92642 23.3076 2.53846 23.3076H18.6923V39.4615C18.6923 40.0735 18.9354 40.6605 19.3682 41.0933C19.801 41.526 20.388 41.7692 21 41.7692C21.612 41.7692 22.199 41.526 22.6318 41.0933C23.0646 40.6605 23.3077 40.0735 23.3077 39.4615V23.3076H39.4615C40.0736 23.3076 40.6605 23.0645 41.0933 22.6317C41.5261 22.199 41.7692 21.612 41.7692 20.9999C41.7692 20.3879 41.5261 19.8009 41.0933 19.3682C40.6605 18.9354 40.0736 18.6923 39.4615 18.6923Z"
          fill="var(--current-color)"/>
</svg>