<svg width="32" height="33" viewBox="0 0 32 33" fill="none" xmlns="http://www.w3.org/2000/svg">
    <path d="M11.7455 2.75798C12.5597 2.51156 13.334 3.15715 13.334 4.0078C13.334 4.64381 12.8906 5.18725 12.2858 5.38397C7.47666 6.94812 4.00065 11.4671 4.00065 16.7979C4.00065 21.5095 6.71607 25.5869 10.6673 27.5505V22.1309C10.6673 21.3945 11.2643 20.7975 12.0007 20.7975C12.737 20.7975 13.334 21.3945 13.334 22.1309V30.1309C13.334 30.8672 12.737 31.4642 12.0007 31.4642H4.00065C3.26427 31.4642 2.66732 30.8672 2.66732 30.1309C2.66732 29.3945 3.26427 28.7975 4.00065 28.7975H7.56527C3.79629 26.1432 1.33398 21.7581 1.33398 16.7979C1.33398 10.1775 5.72041 4.58161 11.7455 2.75798Z" fill="var(--current-color)"/>
    <path d="M28.0006 4.79753C28.737 4.79753 29.334 4.20057 29.334 3.46419C29.334 2.72781 28.737 2.13086 28.0006 2.13086H20.0007C19.2643 2.13086 18.6673 2.72781 18.6673 3.46419V11.4642C18.6673 12.2006 19.2643 12.7975 20.0007 12.7975C20.737 12.7975 21.334 12.2006 21.334 11.4642V6.04524C25.2852 8.00884 28.0006 12.0862 28.0006 16.7979C28.0006 22.1287 24.5246 26.6476 19.7155 28.2118C19.1107 28.4085 18.6673 28.9519 18.6673 29.588C18.6673 30.4386 19.4416 31.0842 20.2558 30.8378C26.2809 29.0141 30.6673 23.4183 30.6673 16.7979C30.6673 11.8372 28.2046 7.4518 24.435 4.79753H28.0006Z" fill="var(--current-color)"/>
</svg>
