<svg width="30" height="30" viewBox="0 0 30 30" fill="none" xmlns="http://www.w3.org/2000/svg">
    <path fill-rule="evenodd" clip-rule="evenodd" d="M12.4517 1.74788C12.926 1.34576 13.5276 1.12503 14.1493 1.125H15.85C16.4721 1.1252 17.0743 1.34635 17.5485 1.74902C18.0227 2.15163 18.3385 2.70954 18.4396 3.32329C18.4396 3.3232 18.4396 3.32338 18.4396 3.32329L18.5566 4.03284C19.1314 4.21908 19.6906 4.45055 20.2288 4.72507L20.8162 4.30471C21.3218 3.94286 21.9395 3.77222 22.5592 3.82323C23.1789 3.87423 23.7603 4.14353 24.2 4.58316C24.2 4.58314 24.2 4.58317 24.2 4.58316M25.4023 5.78533C25.4023 5.78531 25.4023 5.78535 25.4023 5.78533L24.2 4.58316L25.4023 5.78533ZM25.4023 5.78533C25.8424 6.2253 26.1118 6.8073 26.1626 7.42751C26.2133 8.04766 26.0422 8.66567 25.6796 9.17133C25.6795 9.1714 25.6796 9.17127 25.6796 9.17133L25.2606 9.75578C25.5352 10.2939 25.7668 10.8529 25.9532 11.4276L26.6657 11.5457C27.2791 11.6474 27.8366 11.9635 28.2387 12.4377C28.6408 12.912 28.8615 13.5136 28.8615 14.1354V15.836C28.8614 16.458 28.6405 17.0599 28.238 17.5342C27.8356 18.0085 27.2778 18.3244 26.6641 18.4257L25.9542 18.5428C25.7685 19.1156 25.5379 19.6729 25.2645 20.2095L25.6885 20.8053C26.0483 21.3109 26.2174 21.9277 26.1656 22.5461C26.1139 23.1645 25.8448 23.7446 25.4059 24.1834L24.1984 25.3909C23.7593 25.83 23.1788 26.0992 22.56 26.1507C21.9412 26.2022 21.3241 26.0327 20.8185 25.6722L20.2255 25.2494C19.6908 25.5219 19.1355 25.7519 18.5648 25.9373L18.4432 26.6587C18.3401 27.2706 18.0235 27.8264 17.5496 28.227C17.0758 28.6277 16.4753 28.8476 15.8547 28.8476H14.1471C13.5262 28.8476 12.9253 28.6274 12.4513 28.2263C11.9773 27.8251 11.6609 27.2689 11.5582 26.6565C11.5582 26.6565 11.5582 26.6565 11.5582 26.6565L11.4378 25.938C10.8671 25.7527 10.3118 25.5228 9.77711 25.2505L9.18108 25.6745C8.67545 26.0343 8.05872 26.2033 7.44034 26.1515C6.82195 26.0998 6.24189 25.8306 5.8031 25.3918L4.5956 24.1843C4.15655 23.7452 3.88733 23.1647 3.83584 22.5459C3.78434 21.9271 3.95387 21.3101 4.3143 20.8045L4.73707 20.2115C4.46459 19.6768 4.23457 19.1215 4.04915 18.5507L3.32792 18.4291C2.71592 18.3261 2.16021 18.0096 1.75943 17.5357C1.35865 17.0619 1.13872 16.4614 1.13867 15.8408V14.1331C1.13867 13.5121 1.3588 12.9112 1.75996 12.4373C2.16113 11.9633 2.71733 11.6468 3.32976 11.5442L4.04828 11.4238C4.23424 10.851 4.4651 10.2938 4.73873 9.75741L4.31872 9.17028C4.31868 9.17022 4.31876 9.17033 4.31872 9.17028C3.95696 8.66467 3.78627 8.04691 3.83727 7.42731C3.88827 6.80772 4.15751 6.22635 4.59705 5.7867C4.59699 5.78676 4.59711 5.78664 4.59705 5.7867L5.79885 4.5843C6.23883 4.14421 6.82095 3.87465 7.44118 3.82387C8.06133 3.77311 8.67935 3.94428 9.185 4.30687L9.7695 4.72588C10.3077 4.45126 10.8668 4.21967 11.4415 4.03329L11.5598 3.32081C11.5597 3.3209 11.5598 3.32072 11.5598 3.32081C11.6615 2.70752 11.9776 2.14994 12.4517 1.74788M14.1494 3.375C14.0606 3.37502 13.9746 3.40655 13.9069 3.46398C13.8392 3.52143 13.794 3.60106 13.7795 3.68869L13.5451 5.10099C13.4719 5.54173 13.1449 5.89742 12.7118 6.00725C11.8521 6.22528 11.0285 6.56649 10.2665 7.02029C9.8822 7.24912 9.39888 7.22861 9.03539 6.96803L7.87409 6.13553C7.80185 6.08372 7.71336 6.05912 7.62475 6.06637C7.53619 6.07362 7.45308 6.11208 7.39024 6.1749L6.18844 7.3773C6.12563 7.44011 6.08698 7.52335 6.07969 7.61188C6.0724 7.7004 6.09678 7.78864 6.14847 7.86087L6.98109 9.02482C7.24101 9.38817 7.2613 9.87089 7.03279 10.2548C6.58037 11.0148 6.23998 11.8362 6.02215 12.6935C5.91232 13.1257 5.55755 13.4522 5.11773 13.5259L3.70168 13.7632C3.61419 13.7779 3.53474 13.8231 3.47743 13.8908C3.42012 13.9585 3.38867 14.0444 3.38867 14.1331V15.8406C3.38867 15.8406 3.38867 15.8406 3.38867 15.8406C3.3887 15.9292 3.42012 16.0151 3.47735 16.0827C3.53461 16.1504 3.61399 16.1956 3.70142 16.2104L5.11969 16.4494C5.55894 16.5235 5.91314 16.8497 6.02297 17.2814C6.24047 18.1364 6.57984 18.9556 7.03064 19.7139C7.25849 20.0972 7.23849 20.5788 6.97965 20.9419L6.14644 22.1105C6.14643 22.1105 6.14645 22.1105 6.14644 22.1105C6.09498 22.1827 6.07073 22.2709 6.07809 22.3593C6.08544 22.4477 6.12389 22.5306 6.18659 22.5933C6.18658 22.5933 6.1866 22.5933 6.18659 22.5933L7.39409 23.8008C7.45678 23.8635 7.53965 23.902 7.62799 23.9094C7.71633 23.9168 7.80444 23.8926 7.87667 23.8412L9.0482 23.0077C9.41109 22.7495 9.89213 22.7297 10.275 22.9572C11.0333 23.4078 11.8525 23.7469 12.7075 23.9642C13.1396 24.074 13.4662 24.4287 13.5399 24.8685L13.7773 26.2845C13.7919 26.372 13.8371 26.4515 13.9049 26.5088C13.9726 26.5661 14.0584 26.5976 14.1471 26.5976H15.8547C15.9434 26.5976 16.0292 26.5661 16.0969 26.5089C16.1645 26.4517 16.2097 26.3724 16.2245 26.285C16.2245 26.285 16.2245 26.2849 16.2245 26.285L16.4634 24.8669C16.5374 24.4276 16.8636 24.0733 17.2954 23.9635C18.1504 23.746 18.9696 23.4066 19.7279 22.9559C20.1111 22.728 20.5928 22.748 20.9558 23.0069L22.1246 23.8401C22.1968 23.8916 22.285 23.9158 22.3734 23.9085C22.4618 23.9011 22.5447 23.8627 22.6075 23.7999L23.8149 22.5924C23.8776 22.5297 23.9161 22.4469 23.9235 22.3585C23.9309 22.2702 23.9067 22.1821 23.8553 22.1098L23.0217 20.9384C22.7635 20.5754 22.7437 20.0943 22.9713 19.7114C23.4232 18.951 23.7631 18.1294 23.9803 17.2719C24.0902 16.8384 24.4465 16.511 24.8878 16.4383L26.2976 16.2058C26.2975 16.2058 26.2977 16.2058 26.2976 16.2058C26.3852 16.1913 26.465 16.1461 26.5225 16.0784C26.5799 16.0107 26.6115 15.9248 26.6115 15.836C26.6115 15.836 26.6115 15.8361 26.6115 15.836V14.1354C26.6115 14.0466 26.58 13.9606 26.5225 13.8929C26.4651 13.8251 26.3855 13.78 26.2978 13.7654L24.8858 13.5314C24.4449 13.4584 24.0891 13.1313 23.9793 12.6981C23.7613 11.8384 23.4201 11.0148 22.9662 10.2529C22.7373 9.86861 22.7578 9.38524 23.0184 9.02172L23.8509 7.86042C23.9027 7.78818 23.9273 7.69968 23.9201 7.61108C23.9128 7.52247 23.8743 7.43933 23.8115 7.37647L22.6091 6.17424C22.5463 6.11144 22.4632 6.07293 22.3746 6.06564C22.2861 6.05836 22.1979 6.08272 22.1257 6.13439C22.1257 6.1344 22.1257 6.13438 22.1257 6.13439L20.9618 6.96734C20.5985 7.22739 20.1157 7.24775 19.7317 7.01923C18.9695 6.5656 18.1458 6.22463 17.2859 6.0069C16.8523 5.89709 16.5249 5.54076 16.4521 5.09936L16.2196 3.68936C16.2051 3.60166 16.16 3.52167 16.0922 3.46415C16.0246 3.4067 15.9387 3.37511 15.85 3.375H14.1494C14.1494 3.375 14.1494 3.375 14.1494 3.375Z" fill="#00CC69"/>
    <path fill-rule="evenodd" clip-rule="evenodd" d="M15 12C13.3431 12 12 13.3431 12 15C12 16.6569 13.3431 18 15 18C16.6569 18 18 16.6569 18 15C18 13.3431 16.6569 12 15 12ZM9.75 15C9.75 12.1005 12.1005 9.75 15 9.75C17.8995 9.75 20.25 12.1005 20.25 15C20.25 17.8995 17.8995 20.25 15 20.25C12.1005 20.25 9.75 17.8995 9.75 15Z" fill="#00CC69"/>
</svg>
