<svg width="26" height="27" viewBox="0 0 26 27" fill="none" xmlns="http://www.w3.org/2000/svg">
    <g clip-path="url(#clip0_14815_4335)">
        <path d="M20 11.1953H17C16.7348 11.1953 16.4804 11.3007 16.2929 11.4882C16.1054 11.6757 16 11.9301 16 12.1953C16 12.4605 16.1054 12.7149 16.2929 12.9024C16.4804 13.09 16.7348 13.1953 17 13.1953H20V23.1953H6V13.1953H8.7856C9.05082 13.1953 9.30517 13.09 9.49271 12.9024C9.68024 12.7149 9.7856 12.4605 9.7856 12.1953C9.7856 11.9301 9.68024 11.6757 9.49271 11.4882C9.30517 11.3007 9.05082 11.1953 8.7856 11.1953H6C5.46973 11.1958 4.96133 11.4067 4.58637 11.7817C4.21141 12.1566 4.00053 12.665 4 13.1953V23.1953C4.00053 23.7256 4.21141 24.234 4.58637 24.6089C4.96133 24.9839 5.46973 25.1948 6 25.1953H20C20.5303 25.1948 21.0387 24.9839 21.4136 24.6089C21.7886 24.234 21.9995 23.7256 22 23.1953V13.1953C21.9995 12.665 21.7886 12.1566 21.4136 11.7817C21.0387 11.4067 20.5303 11.1958 20 11.1953Z" fill="white"/>
        <path d="M8.87831 7.07405L11.9999 3.95285V18.1956C11.9999 18.4609 12.1053 18.7152 12.2928 18.9028C12.4803 19.0903 12.7347 19.1956 12.9999 19.1956C13.2651 19.1956 13.5195 19.0903 13.707 18.9028C13.8945 18.7152 13.9999 18.4609 13.9999 18.1956V3.95285L17.1215 7.07405C17.2138 7.16956 17.3241 7.24574 17.4461 7.29815C17.5681 7.35056 17.6993 7.37815 17.8321 7.3793C17.9649 7.38045 18.0966 7.35515 18.2195 7.30487C18.3424 7.25459 18.454 7.18034 18.5479 7.08644C18.6418 6.99255 18.716 6.8809 18.7663 6.758C18.8166 6.63511 18.8419 6.50343 18.8408 6.37065C18.8396 6.23787 18.812 6.10665 18.7596 5.98464C18.7072 5.86264 18.631 5.7523 18.5355 5.66005L13.7069 0.831849C13.5194 0.644378 13.2651 0.539063 12.9999 0.539062C12.7347 0.539062 12.4804 0.644378 12.2929 0.831849L7.46431 5.66005C7.28215 5.84865 7.18135 6.10125 7.18363 6.36345C7.18591 6.62565 7.29108 6.87646 7.47649 7.06187C7.6619 7.24728 7.91271 7.35244 8.1749 7.35472C8.4371 7.357 8.6897 7.25621 8.87831 7.07405Z" fill="white"/>
    </g>
    <defs>
        <clipPath id="clip0_14815_4335">
            <rect width="26" height="26" fill="white" transform="translate(0 0.195312)"/>
        </clipPath>
    </defs>
</svg>
