<svg width="32" height="33" viewBox="0 0 32 33" fill="none" xmlns="http://www.w3.org/2000/svg">
    <path d="M25.823 2.02832H6.17522C5.51677 2.02894 4.88545 2.29074 4.4198 2.75628C3.95415 3.22182 3.69219 3.85307 3.69141 4.51152V29.0836C3.69219 29.742 3.95415 30.3733 4.4198 30.8388C4.88545 31.3044 5.51677 31.5662 6.17522 31.5668H25.823C26.4814 31.5662 27.1127 31.3044 27.5784 30.8388C28.0441 30.3733 28.306 29.742 28.3068 29.0836V4.51152C28.306 3.85307 28.0441 3.22182 27.5784 2.75628C27.1127 2.29074 26.4814 2.02894 25.823 2.02832ZM25.8453 29.0836C25.8452 29.0894 25.8428 29.0949 25.8386 29.099C25.8344 29.1031 25.8288 29.1053 25.823 29.1052L6.15294 29.0836L6.17522 4.48986L25.8453 4.51152V29.0836Z" fill="var(--current-color)"/>
    <path d="M9.846 11.8741H22.1537C22.4801 11.8741 22.7932 11.7445 23.024 11.5137C23.2548 11.2828 23.3845 10.9698 23.3845 10.6434C23.3845 10.3169 23.2548 10.0039 23.024 9.77308C22.7932 9.54227 22.4801 9.4126 22.1537 9.4126H9.846C9.51958 9.4126 9.20653 9.54227 8.97572 9.77308C8.7449 10.0039 8.61523 10.3169 8.61523 10.6434C8.61523 10.9698 8.7449 11.2828 8.97572 11.5137C9.20653 11.7445 9.51958 11.8741 9.846 11.8741Z" fill="var(--current-color)"/>
    <path d="M9.846 16.7975H22.1537C22.4801 16.7975 22.7932 16.6678 23.024 16.437C23.2548 16.2062 23.3845 15.8931 23.3845 15.5667C23.3845 15.2403 23.2548 14.9272 23.024 14.6964C22.7932 14.4656 22.4801 14.3359 22.1537 14.3359H9.846C9.51958 14.3359 9.20653 14.4656 8.97572 14.6964C8.7449 14.9272 8.61523 15.2403 8.61523 15.5667C8.61523 15.8931 8.7449 16.2062 8.97572 16.437C9.20653 16.6678 9.51958 16.7975 9.846 16.7975Z" fill="var(--current-color)"/>
    <path d="M22.1541 22.9512H16.0003C15.6739 22.9512 15.3608 23.0808 15.13 23.3117C14.8992 23.5425 14.7695 23.8555 14.7695 24.1819C14.7695 24.5084 14.8992 24.8214 15.13 25.0522C15.3608 25.283 15.6739 25.4127 16.0003 25.4127H22.1541C22.4806 25.4127 22.7936 25.283 23.0244 25.0522C23.2552 24.8214 23.3849 24.5084 23.3849 24.1819C23.3849 23.8555 23.2552 23.5425 23.0244 23.3117C22.7936 23.0808 22.4806 22.9512 22.1541 22.9512Z" fill="var(--current-color)"/>
</svg>
