<svg width="23" height="20" viewBox="0 0 23 20" fill="none" xmlns="http://www.w3.org/2000/svg">
    <path d="M12.2289 19.5565C12.0311 19.5565 11.8378 19.4978 11.6734 19.3879C11.509 19.2781 11.3809 19.1219 11.3052 18.9392C11.2295 18.7565 11.2097 18.5555 11.2483 18.3615C11.2869 18.1676 11.3821 17.9894 11.5219 17.8495L19.0434 10.328C19.9547 9.41675 20.4667 8.18076 20.4667 6.89199C20.4667 5.60323 19.9547 4.36724 19.0434 3.45594C18.1321 2.54465 16.8961 2.03269 15.6073 2.03269C14.3186 2.03269 13.0826 2.54465 12.1713 3.45594L3.19469 12.4325C2.6506 12.9781 2.34505 13.7171 2.34505 14.4875C2.34505 15.258 2.6506 15.997 3.19469 16.5425C3.74826 17.0712 4.48425 17.3662 5.24969 17.3662C6.01513 17.3662 6.75113 17.0712 7.30469 16.5425L14.8262 9.02104C15.0049 8.84232 15.1053 8.59991 15.1053 8.34714C15.1053 8.09438 15.0049 7.85197 14.8262 7.67324C14.6475 7.49451 14.4051 7.39411 14.1523 7.39411C13.8995 7.39411 13.6571 7.49451 13.4784 7.67324L7.35439 13.7968C7.16591 13.9797 6.91308 14.081 6.65051 14.079C6.38793 14.077 6.13668 13.9718 5.95101 13.7861C5.76535 13.6004 5.66016 13.3492 5.65818 13.0866C5.65619 12.824 5.75756 12.5712 5.94039 12.3827L12.0644 6.25894C12.6182 5.70517 13.3692 5.39407 14.1524 5.39407C14.9355 5.39407 15.6866 5.70517 16.2404 6.25894C16.7942 6.81272 17.1053 7.56379 17.1053 8.34694C17.1053 9.1301 16.7942 9.88117 16.2404 10.4349L8.71899 17.9564C7.79902 18.8766 6.55122 19.3935 5.25008 19.3936C3.94894 19.3937 2.70106 18.877 1.78094 17.957C0.860827 17.037 0.343853 15.7892 0.34375 14.4881C0.343647 13.1869 0.860422 11.9391 1.78039 11.0189L10.7572 2.04194C12.0465 0.770319 13.7864 0.0601817 15.5974 0.0664474C17.4083 0.072713 19.1432 0.794874 20.4237 2.07539C21.7043 3.35591 22.4264 5.09086 22.4327 6.90177C22.439 8.71269 21.7288 10.4526 20.4572 11.7419L12.9357 19.2633C12.843 19.3564 12.7329 19.4302 12.6116 19.4805C12.4903 19.5308 12.3602 19.5567 12.2289 19.5565Z" fill="#B1B1B1"/>
</svg>
