<svg width="101" height="102" viewBox="0 0 101 102" fill="none" xmlns="http://www.w3.org/2000/svg">
    <path fill-rule="evenodd" clip-rule="evenodd" d="M83.5841 33.5737C83.5442 33.4973 83.504 33.421 83.4634 33.3448C73.8092 15.1872 51.2633 8.29392 33.1057 17.9482C33.1053 17.9484 33.1049 17.9486 33.1045 17.9488C24.0268 22.7753 17.7641 30.825 14.978 39.9364L14.9778 39.9389C12.2135 48.9805 12.8715 59.0684 17.5967 68.0929C12.8717 59.0688 12.214 48.981 14.9777 39.9396L14.9778 39.9389C17.7638 30.8261 24.0262 22.7761 33.1045 17.9488C37.9313 27.027 38.6205 37.2029 35.8341 46.3155C33.0491 55.4289 26.7891 63.4781 17.7091 68.3059C26.7875 63.4789 36.9634 62.7908 46.0754 65.5772C55.1899 68.3626 63.2382 74.6238 68.0656 83.7032C68.066 83.703 68.0664 83.7028 68.0668 83.7025C85.0895 74.6517 92.212 54.2703 85.081 36.7966C92.2118 54.2704 85.0884 74.6523 68.0656 83.7032C63.2388 74.625 62.552 64.4478 65.3376 55.3356C68.1234 46.2218 74.3834 38.1726 83.4634 33.3448C83.4837 33.383 83.5037 33.4211 83.5238 33.4592C83.5438 33.4974 83.5638 33.5355 83.5841 33.5737ZM67.6404 83.9258C58.6705 88.5503 48.6702 89.1763 39.6998 86.4338L39.6977 86.4327C30.6468 83.6651 22.6437 77.4678 17.8065 68.4879C22.6441 77.4686 30.6476 83.6663 39.6998 86.4338L39.7005 86.4342C48.6703 89.1768 58.671 88.5504 67.6404 83.9258ZM65.3376 55.3356L46.0754 65.5772L35.8341 46.3155L55.0963 36.074L65.3376 55.3356ZM55.0963 36.074C45.9843 33.2876 37.9313 27.027 33.1045 17.9488C42.183 13.1218 52.3579 12.4318 61.4702 15.2169L61.4745 15.2176C70.5104 17.981 78.5011 24.162 83.3412 33.1168C83.3666 33.1645 83.3922 33.2119 83.4177 33.2594C83.433 33.2878 83.4483 33.3163 83.4634 33.3448C74.3834 38.1726 64.2097 38.861 55.0963 36.074Z" fill="#00CD69"/>
    <rect x="35.8418" y="46.3154" width="21.8064" height="21.8064" transform="rotate(-27.9992 35.8418 46.3154)" fill="#00CD69"/>
</svg>
