<svg width="26" height="27" viewBox="0 0 26 27" fill="none" xmlns="http://www.w3.org/2000/svg">
    <path fill-rule="evenodd" clip-rule="evenodd" d="M9.90359 9.4217C9.82369 9.58359 9.66925 9.6958 9.4906 9.72176L3.66665 10.568C3.21675 10.6334 3.03711 11.1863 3.36266 11.5036L7.57691 15.6115C7.70618 15.7375 7.76517 15.9191 7.73466 16.097L6.73981 21.8974C6.66296 22.3455 7.13326 22.6872 7.53566 22.4756L12.7448 19.737C12.9046 19.653 13.0954 19.653 13.2552 19.737L18.4643 22.4756C18.8667 22.6872 19.337 22.3455 19.2602 21.8974L18.2653 16.097C18.2348 15.9191 18.2938 15.7375 18.4231 15.6115L22.6373 11.5036C22.9629 11.1863 22.7832 10.6334 22.3334 10.568L16.5094 9.72176C16.3308 9.6958 16.1763 9.58359 16.0964 9.4217L13.4919 4.14431C13.2907 3.73663 12.7093 3.73663 12.5081 4.14431L9.90359 9.4217ZM17.681 7.67494L15.4593 3.17331C14.4533 1.13494 11.5467 1.13494 10.5407 3.17331L8.31899 7.67494L3.35115 8.39681C1.10168 8.72367 0.203471 11.4881 1.83121 13.0747L5.42597 16.5787L4.57736 21.5265C4.19311 23.7669 6.54464 25.4754 8.55663 24.4176L13 22.0816L17.4434 24.4176C19.4554 25.4754 21.8069 23.7669 21.4226 21.5265L20.574 16.5787L24.1688 13.0747C25.7965 11.4881 24.8983 8.72367 22.6488 8.39681L17.681 7.67494Z" fill="#AAAAAA"/>
</svg>