<svg width="60" height="60" viewBox="0 0 60 60" fill="none" xmlns="http://www.w3.org/2000/svg">
    <path fill-rule="evenodd" clip-rule="evenodd" d="M30 57.5C45.1878 57.5 57.5 45.1878 57.5 30C57.5 14.8122 45.1878 2.5 30 2.5C14.8122 2.5 2.5 14.8122 2.5 30C2.5 45.1878 14.8122 57.5 30 57.5ZM30 60C46.5685 60 60 46.5685 60 30C60 13.4315 46.5685 0 30 0C13.4315 0 0 13.4315 0 30C0 46.5685 13.4315 60 30 60Z" fill="#011D32" fill-opacity="0.3"/>
    <path d="M34.3123 33.75H25.6877C24.4483 33.75 23.221 33.9941 22.0759 34.4684C20.9309 34.9427 19.8905 35.6379 19.0141 36.5143C18.1377 37.3908 17.4426 38.4312 16.9683 39.5763C16.494 40.7213 16.25 41.9486 16.25 43.188C16.25 43.7543 16.3615 44.315 16.5783 44.8382C16.795 45.3614 17.1126 45.8368 17.5131 46.2372C17.9135 46.6376 18.3889 46.9552 18.9121 47.1719C19.4353 47.3885 19.9961 47.5 20.5623 47.5H39.4377C40.0039 47.5 40.5647 47.3885 41.0879 47.1719C41.6111 46.9552 42.0865 46.6376 42.4869 46.2372C42.8874 45.8368 43.205 45.3614 43.4217 44.8382C43.6385 44.315 43.75 43.7543 43.75 43.188C43.75 41.9486 43.506 40.7213 43.0317 39.5763C42.5574 38.4312 41.8623 37.3908 40.9859 36.5143C40.1095 35.6379 39.0691 34.9427 37.9241 34.4684C36.779 33.9941 35.5517 33.75 34.3123 33.75V33.75Z" fill="#011D32" fill-opacity="0.3"/>
    <path d="M30 28.75C34.8325 28.75 38.75 25.1123 38.75 20.625C38.75 16.1377 34.8325 12.5 30 12.5C25.1675 12.5 21.25 16.1377 21.25 20.625C21.25 25.1123 25.1675 28.75 30 28.75Z" fill="#011D32" fill-opacity="0.3"/>
</svg>
